<svg width="24" height="24" viewBox="0 0 24 24" fill="none" xmlns="http://www.w3.org/2000/svg">
<path d="M20.4001 0H3.60006C1.61184 0 6.10352e-05 1.61177 6.10352e-05 3.6V20.4C6.10352e-05 22.3882 1.61184 24 3.60006 24H20.4001C22.3883 24 24.0001 22.3882 24.0001 20.4V3.6C24.0001 1.61177 22.3883 0 20.4001 0Z" fill="#6C6C6C"/>
<path d="M9.83334 12.1899V10.4151H11.2649V9.52264C11.2649 8.87818 11.4737 8.33014 11.8919 7.87766C12.3101 7.42546 12.8169 7.19922 13.4114 7.19922H14.8333V8.97431H13.4114C13.3188 8.97431 13.2351 9.02543 13.1608 9.12766C13.0864 9.22989 13.0492 9.35535 13.0492 9.50405V10.4148H14.8333V12.1896H13.049V16.4929H11.2646V12.1899H9.83334Z" fill="#E3E3E3"/>
</svg>
