<svg width="24" height="24" viewBox="0 0 24 24" fill="none" xmlns="http://www.w3.org/2000/svg">
<path d="M20.4 0H3.6C1.61177 0 0 1.61177 0 3.6V20.4C0 22.3882 1.61177 24 3.6 24H20.4C22.3882 24 24 22.3882 24 20.4V3.6C24 1.61177 22.3882 0 20.4 0Z" fill="#6C6C6C"/>
<path d="M11.039 14.5798V10.7075C11.039 10.5623 11.1197 10.4736 11.281 10.4413L14.6209 9.76364C14.7984 9.73137 14.8952 9.81204 14.9113 10.0057V12.9583C14.9113 13.2003 14.5483 13.3616 13.8222 13.4423C12.4427 13.6601 12.6605 15.9835 14.5483 15.3542C15.2743 15.088 15.3953 14.3862 15.3953 13.6843V8.02112C15.3953 8.02112 15.3953 7.53708 14.9839 7.65809L10.8696 8.50515C10.8696 8.50515 10.555 8.55356 10.555 8.94078V13.8537C10.555 14.0957 10.192 14.2571 9.46592 14.3378C8.08642 14.5556 8.30423 16.8789 10.192 16.2497C10.918 15.9835 11.039 15.2816 11.039 14.5798Z" fill="#E3E3E3"/>
</svg>
