<svg width="24" height="24" viewBox="0 0 24 24" fill="none" xmlns="http://www.w3.org/2000/svg">
<rect width="24" height="24" rx="12" fill="#6C6C6C"/>
<g clip-path="url(#clip0_362_643)">
<path d="M12.0019 9.75342C10.7597 9.75342 9.75778 10.7554 9.75778 11.9976C9.75778 13.2397 10.7597 14.2417 12.0019 14.2417C13.2441 14.2417 14.2461 13.2397 14.2461 11.9976C14.2461 10.7554 13.2441 9.75342 12.0019 9.75342ZM12.0019 13.4565C11.1992 13.4565 10.5429 12.8022 10.5429 11.9976C10.5429 11.1929 11.1972 10.5386 12.0019 10.5386C12.8066 10.5386 13.4609 11.1929 13.4609 11.9976C13.4609 12.8022 12.8047 13.4565 12.0019 13.4565ZM14.8613 9.66162C14.8613 9.95264 14.6269 10.1851 14.3379 10.1851C14.0468 10.1851 13.8144 9.95068 13.8144 9.66162C13.8144 9.37256 14.0488 9.13818 14.3379 9.13818C14.6269 9.13818 14.8613 9.37256 14.8613 9.66162ZM16.3476 10.1929C16.3144 9.4917 16.1543 8.87061 15.6406 8.35889C15.1289 7.84717 14.5078 7.68701 13.8066 7.65186C13.084 7.61084 10.9179 7.61084 10.1953 7.65186C9.49606 7.68506 8.87497 7.84521 8.3613 8.35693C7.84763 8.86865 7.68942 9.48975 7.65427 10.1909C7.61325 10.9136 7.61325 13.0796 7.65427 13.8022C7.68747 14.5034 7.84763 15.1245 8.3613 15.6362C8.87497 16.1479 9.49411 16.3081 10.1953 16.3433C10.9179 16.3843 13.084 16.3843 13.8066 16.3433C14.5078 16.3101 15.1289 16.1499 15.6406 15.6362C16.1523 15.1245 16.3125 14.5034 16.3476 13.8022C16.3886 13.0796 16.3886 10.9155 16.3476 10.1929ZM15.414 14.5776C15.2617 14.9604 14.9668 15.2554 14.582 15.4097C14.0058 15.6382 12.6386 15.5854 12.0019 15.5854C11.3652 15.5854 9.99606 15.6362 9.42184 15.4097C9.03903 15.2573 8.74411 14.9624 8.58981 14.5776C8.3613 14.0015 8.41403 12.6343 8.41403 11.9976C8.41403 11.3608 8.36325 9.9917 8.58981 9.41748C8.74216 9.03467 9.03708 8.73975 9.42184 8.58545C9.99802 8.35693 11.3652 8.40967 12.0019 8.40967C12.6386 8.40967 14.0078 8.35889 14.582 8.58545C14.9648 8.73779 15.2597 9.03271 15.414 9.41748C15.6425 9.99365 15.5898 11.3608 15.5898 11.9976C15.5898 12.6343 15.6425 14.0034 15.414 14.5776Z" fill="#E3E3E3"/>
</g>
<defs>
<clipPath id="clip0_362_643">
<rect width="8.75" height="10" fill="white" transform="translate(7.625 7)"/>
</clipPath>
</defs>
</svg>
