<svg width="24" height="24" viewBox="0 0 24 24" fill="none" xmlns="http://www.w3.org/2000/svg">
<path d="M20.4001 0H3.60006C1.61184 0 6.10352e-05 1.61177 6.10352e-05 3.6V20.4C6.10352e-05 22.3882 1.61184 24 3.60006 24H20.4001C22.3883 24 24.0001 22.3882 24.0001 20.4V3.6C24.0001 1.61177 22.3883 0 20.4001 0Z" fill="#6C6C6C"/>
<path d="M2.7662 12.6559L2.62557 13.6872L2.7662 14.7184C2.7662 14.8122 2.90682 14.8122 2.90682 14.7184L3.04745 13.6872L2.90682 12.6559C2.90682 12.5153 2.7662 12.5153 2.7662 12.6559ZM3.60995 11.9997C3.60995 11.859 3.46932 11.859 3.46932 11.9997L3.23495 13.6872L3.42245 15.3278C3.42245 15.4684 3.60995 15.4684 3.60995 15.3278L3.79745 13.6872L3.60995 11.9997ZM6.37557 10.5934L6.23495 13.6872L6.3287 15.5622C6.3287 15.9372 6.65682 15.9372 6.65682 15.5622L6.84432 13.6872L6.65682 10.5934C6.65682 10.359 6.37557 10.359 6.37557 10.5934ZM4.92245 11.6247L4.73495 13.6872L4.87557 15.5622C4.87557 15.8434 5.10995 15.8434 5.10995 15.5622L5.29745 13.6872L5.10995 11.6247C5.10995 11.484 4.92245 11.484 4.92245 11.6247ZM8.2037 15.5622L8.34432 13.6872L8.2037 9.56215C8.2037 9.2809 7.87557 9.2809 7.87557 9.56215L7.73495 13.6872L7.8287 15.5622C7.8287 15.9372 8.2037 15.9372 8.2037 15.5622ZM11.3912 15.5622L11.4849 13.6872L11.3912 8.9059C11.3912 8.57778 10.9224 8.57778 10.9224 8.9059L10.8287 13.6872L10.9224 15.5622C10.9224 15.9372 11.3912 15.9372 11.3912 15.5622ZM9.79745 15.5622L9.93807 13.6872L9.79745 9.51528C9.79745 9.23403 9.37557 9.23403 9.37557 9.51528L9.28182 13.6872L9.37557 15.5622C9.37557 15.9372 9.79745 15.9372 9.79745 15.5622ZM5.90682 15.5622L6.04745 13.6872L5.90682 11.7653C5.90682 11.6247 5.62557 11.6247 5.62557 11.7653L5.48495 13.6872L5.62557 15.5622C5.62557 15.8903 5.90682 15.8903 5.90682 15.5622ZM4.35995 15.5622L4.54745 13.6872L4.35995 11.6715C4.35995 11.5309 4.17245 11.5309 4.17245 11.6715L3.98495 13.6872L4.17245 15.5622C4.17245 15.7497 4.35995 15.7497 4.35995 15.5622ZM10.1724 9.70278L10.0787 13.6872L10.1256 15.5622C10.1256 15.9372 10.5943 15.9372 10.5943 15.5622L10.6881 13.6872L10.5943 9.70278C10.5943 9.37465 10.1724 9.37465 10.1724 9.70278ZM7.4537 15.5622L7.59432 13.6872L7.4537 9.89028C7.4537 9.60903 7.12557 9.60903 7.12557 9.89028L6.98495 13.6872L7.0787 15.5622C7.0787 15.9372 7.4537 15.9372 7.4537 15.5622ZM9.00057 15.5622L9.1412 13.6872L9.00057 9.42153C9.00057 9.14028 8.62557 9.14028 8.62557 9.42153L8.48495 13.6872L8.62557 15.5622C8.62557 15.9372 9.00057 15.9372 9.00057 15.5622ZM18.1881 11.3903C17.9537 8.7184 15.1881 6.98403 12.6568 7.9684C12.4693 8.06215 12.4224 8.10903 12.4224 8.24965V15.5622C12.4224 15.7028 12.5162 15.8434 12.6568 15.8434H19.0787C20.3443 15.8434 21.3756 14.8122 21.3756 13.5465C21.3756 11.8122 19.7349 10.8747 18.1881 11.3903ZM11.7193 8.48403L11.5787 13.6872L11.7193 15.5622C11.7193 15.9372 12.1881 15.9372 12.1881 15.5622L12.3287 13.6872L12.1881 8.48403C12.1881 8.1559 11.7193 8.1559 11.7193 8.48403Z" fill="#E3E3E3"/>
</svg>
