<svg width="18" height="18" viewBox="0 0 18 18" fill="none" xmlns="http://www.w3.org/2000/svg">
<path fill-rule="evenodd" clip-rule="evenodd" d="M14.1134 8.04926C11.3401 6.4026 6.70341 6.22927 4.06007 7.05261C3.62674 7.18261 3.1934 6.92261 3.0634 6.5326C2.9334 6.09927 3.1934 5.66593 3.5834 5.53593C6.66007 4.62594 11.7301 4.79928 14.9367 6.70594C15.3267 6.92261 15.4567 7.44261 15.2401 7.83261C15.0234 8.13594 14.5034 8.26593 14.1134 8.04926ZM14.0267 10.4759C13.8101 10.7793 13.4201 10.9093 13.1167 10.6926C10.7767 9.2626 7.22341 8.82928 4.49341 9.69594C4.14674 9.78261 3.75674 9.60927 3.67007 9.2626C3.58341 8.91594 3.75674 8.52594 4.1034 8.43927C7.26674 7.48594 11.1667 7.9626 13.8534 9.60927C14.1134 9.73927 14.2434 10.1726 14.0267 10.4759ZM12.9867 12.8593C12.8134 13.1193 12.5101 13.2059 12.2501 13.0326C10.2134 11.7759 7.65674 11.5159 4.62341 12.2093C4.32007 12.2959 4.06007 12.0793 3.9734 11.8193C3.88674 11.5159 4.10341 11.2559 4.36341 11.1693C7.65674 10.4326 10.5167 10.7359 12.7701 12.1226C13.0734 12.2526 13.1167 12.5993 12.9867 12.8593ZM9.00007 0.335938C4.2334 0.335938 0.333405 4.23594 0.333405 9.0026C0.333405 13.7693 4.2334 17.6693 9.00007 17.6693C13.7667 17.6693 17.6667 13.7693 17.6667 9.0026C17.6667 4.23594 13.8101 0.335938 9.00007 0.335938Z" fill="#6C6C6C"/>
</svg>
