<svg width="120" height="40" viewBox="0 0 131 49" fill="none" xmlns="http://www.w3.org/2000/svg">
    <path d="M8.84179 12.4382L18.6382 6.76892C19.6662 6.1642 20.5733 6.08861 21.3594 6.54215C22.1758 
    6.99569 22.584 7.82718 22.584 9.03661V38.0631L18.6382 40.3308V31.26L8.84179 36.9292V46L4.896 
    48.2677V19.2412C4.896 18.4249 5.07742 17.5783 5.44025 16.7014C5.80308 15.7943 6.28685 14.9628 
    6.89157 14.207C7.49629 13.4208 8.14636 12.8312 8.84179 12.4382ZM18.6382 26.7246V11.3043L8.84179 
    16.9735V32.3938L18.6382 26.7246ZM18.6382 31.26V40.3308L14.6924 38.0631V28.9923L18.6382 31.26ZM18.6382 
    11.3043V26.7246L14.6924 24.4569V9.03661L18.6382 11.3043ZM18.6382 26.7246L8.84179 32.3938L4.896 
    30.1262L14.6924 24.4569L18.6382 26.7246ZM21.4048 6.54215C20.5884 6.08861 19.6662 6.1642 18.6382 
    6.76892L8.84179 12.4382C8.14636 12.8312 7.49629 13.4208 6.89157 14.207C6.28685 14.9628 5.80308 
    15.7943 5.44025 16.7014C5.07742 17.5783 4.896 18.4249 4.896 19.2412V48.2677L0.950216 
    46V16.9735C0.950216 16.1572 1.13163 15.3106 1.49446 14.4337C1.85729 13.5266 2.34107 12.6952 
    2.94578 11.9393C3.5505 11.1531 4.20057 10.5635 4.896 10.1705L14.6924 4.50123C15.7507 3.89651 
    16.6729 3.82092 17.459 4.27446L21.4048 6.54215ZM40.2483 10.8508C41.3065 10.246 42.2287 10.1705 
    43.0148 10.624C43.801 11.0775 44.194 11.909 44.194 13.1185V35.7954L50.09 32.3938V5.18154L54.0358 
    2.91384V34.6615L44.194 40.3308C43.166 40.9355 42.2438 41.0111 41.4275 40.5575C40.6413 40.104 40.2483 
    39.2725 40.2483 38.0631V15.3862L34.3976 18.7877V46L30.4518 48.2677V16.52L40.2483 10.8508ZM54.0358 
    2.91384L50.09 5.18154L46.1443 2.91384L50.09 0.646152L54.0358 2.91384ZM50.09 5.18154V32.3938L46.1443 
    30.1262V2.91384L50.09 5.18154ZM50.09 32.3938L44.194 35.7954L40.2483 33.5277L46.1443 30.1262L50.09 
    32.3938ZM40.2483 15.3862V38.0631C40.2483 39.2725 40.6413 40.104 41.4275 40.5575L37.527 
    38.2898C36.7409 37.8363 36.3478 37.0048 36.3478 35.7954V13.1185L40.2483 15.3862ZM43.0148 
    10.624C42.2287 10.1705 41.3065 10.246 40.2483 10.8508L30.4518 16.52L26.506 14.2523L36.3478 
    8.58307C37.3759 7.97836 38.2829 7.90277 39.0691 8.3563L43.0148 10.624ZM30.4518 16.52V48.2677L26.506 
    46V14.2523L30.4518 16.52ZM75.6406 42.1449L65.8441 47.8142C64.7859 48.4189 63.8637 48.4945 63.0775 
    48.0409C62.2914 47.5874 61.8983 46.7559 61.8983 45.5465V16.52L65.8441 14.2523V43.2788L75.6406 
    37.6095V8.58307L79.5863 6.31538V35.3418C79.5863 36.128 79.3898 36.9746 78.9967 37.8817C78.6339 
    38.7887 78.1501 39.6353 77.5454 40.4215C76.9709 41.1774 76.336 41.7519 75.6406 42.1449ZM79.5863 
    6.31538L75.6406 8.58307L71.6948 6.31538L75.6406 4.04769L79.5863 6.31538ZM75.6406 
    8.58307V37.6095L71.6948 35.3418V6.31538L75.6406 8.58307ZM75.6406 37.6095L65.8441 43.2788L61.8983 
    41.0111L71.6948 35.3418L75.6406 37.6095ZM65.8441 14.2523L61.8983 16.52L57.9526 14.2523L61.8983 
    11.9846L65.8441 14.2523ZM61.8983 16.52V45.5465C61.8983 46.7559 62.2914 47.5874 63.0775 
    48.0409L59.1318 45.7732C58.3456 45.3197 57.9526 44.4882 57.9526 43.2788V14.2523L61.8983 
    16.52ZM87.4542 16.52L91.4 14.2523V27.8585L101.196 22.1892V8.58307L105.142 6.31538V15.3862C105.142 
    16.1723 104.946 17.0189 104.553 17.926C104.19 18.833 103.706 19.6796 103.101 20.4658C102.527 
    21.2217 101.892 21.7962 101.196 22.1892C102.224 21.5845 103.131 21.5089 103.918 21.9625C104.734 
    22.416 105.142 23.2475 105.142 24.4569V38.0631L101.196 40.3308V26.7246L91.4 32.3938V46L87.4542 
    48.2677V16.52ZM101.196 26.7246V40.3308L97.2506 38.0631V24.4569L101.196 26.7246ZM103.963 
    21.9625C103.147 21.5089 102.224 21.5845 101.196 22.1892L97.2506 19.9215C98.3089 19.3168 99.2311 
    19.2412 100.017 19.6948L103.963 21.9625ZM105.142 6.31538L101.196 8.58307L97.2506 6.31538L101.196 
    4.04769L105.142 6.31538ZM101.196 8.58307V22.1892L97.2506 19.9215V6.31538L101.196 8.58307ZM101.196 
    22.1892L91.4 27.8585L87.4542 25.5908L97.2506 19.9215L101.196 22.1892ZM91.4 14.2523L87.4542 
    16.52L83.5084 14.2523L87.4542 11.9846L91.4 14.2523ZM87.4542 16.52V48.2677L83.5084 46V14.2523L87.4542 
    16.52ZM116.956 12.4382L126.752 6.76892C127.78 6.1642 128.687 6.08861 129.473 6.54215C130.29 6.99569 
    130.698 7.82718 130.698 9.03661V38.0631L126.752 40.3308V31.26L116.956 36.9292V46L113.01 
    48.2677V19.2412C113.01 18.4249 113.191 17.5783 113.554 16.7014C113.917 15.7943 114.401 14.9628 
    115.006 14.207C115.61 13.4208 116.26 12.8312 116.956 12.4382ZM126.752 26.7246V11.3043L116.956 
    16.9735V32.3938L126.752 26.7246ZM126.752 31.26V40.3308L122.806 38.0631V28.9923L126.752 31.26ZM126.752 
    11.3043V26.7246L122.806 24.4569V9.03661L126.752 11.3043ZM126.752 26.7246L116.956 32.3938L113.01 
    30.1262L122.806 24.4569L126.752 26.7246ZM129.519 6.54215C128.702 6.08861 127.78 6.1642 126.752 
    6.76892L116.956 12.4382C116.26 12.8312 115.61 13.4208 115.006 14.207C114.401 14.9628 113.917 15.7943 
    113.554 16.7014C113.191 17.5783 113.01 18.4249 113.01 19.2412V48.2677L109.064 46V16.9735C109.064 
    16.1572 109.246 15.3106 109.608 14.4337C109.971 13.5266 110.455 12.6952 111.06 11.9393C111.665 
    11.1531 112.315 10.5635 113.01 10.1705L122.806 4.50123C123.865 3.89651 124.787 3.82092 125.573 
    4.27446L129.519 6.54215Z" fill="white"/>
</svg>
