<svg width="37" height="37" viewBox="0 0 37 37" fill="none" xmlns="http://www.w3.org/2000/svg">
    <g clip-path="url(#clip0_171_1965)">
    <path d="M31.1 0.5H5.9C2.91766 0.5 0.5 2.91766 0.5 5.9V31.1C0.5 34.0823 2.91766 36.5 5.9 36.5H31.1C34.0823 36.5 36.5 34.0823 36.5 31.1V5.9C36.5 2.91766 34.0823 0.5 31.1 0.5Z" fill="url(#paint0_linear_171_1965)"/>
    <path d="M17.0585 22.3726V16.5642C17.0585 16.3464 17.1795 16.2133 17.4215 16.1649L22.4313 15.1484C22.6975 15.1 22.8427 15.221 22.8669 15.5114V19.9403C22.8669 20.3033 22.3224 20.5454 21.2333 20.6664C19.1641 20.9931 19.4908 24.4781 22.3224 23.5343C23.4115 23.1349 23.593 22.0822 23.593 21.0294V12.5346C23.593 12.5346 23.593 11.8086 22.9758 11.9901L16.8044 13.2607C16.8044 13.2607 16.3325 13.3333 16.3325 13.9141V21.2835C16.3325 21.6465 15.7879 21.8886 14.6989 22.0096C12.6296 22.3363 12.9563 25.8213 15.7879 24.8775C16.877 24.4781 17.0585 23.4254 17.0585 22.3726Z" fill="white"/>
    </g>
    <defs>
    <linearGradient id="paint0_linear_171_1965" x1="18.5" y1="0.5" x2="18.5" y2="36.5" gradientUnits="userSpaceOnUse">
    <stop stop-color="#FA596F"/>
    <stop offset="1" stop-color="#FA2940"/>
    </linearGradient>
    <clipPath id="clip0_171_1965">
    <rect x="0.5" y="0.5" width="36" height="36" rx="18" fill="white"/>
    </clipPath>
    </defs>
</svg>