<svg width="56" height="56" viewBox="0 0 56 56" fill="none" xmlns="http://www.w3.org/2000/svg">
    <rect width="56" height="56" rx="28" fill="white"/>
    <g clip-path="url(#clip0_359_621)">
    <mask id="mask0_359_621" style="mask-type:alpha" maskUnits="userSpaceOnUse" x="9" y="10" width="38" height="36">
    <rect x="9.99951" y="28" width="25.4569" height="25.4569" transform="rotate(-45 9.99951 28)" fill="#D9D9D9"/>
    </mask>
    <g mask="url(#mask0_359_621)">
    <path d="M31.8815 25.6163L23.4999 33.9979C23.2874 34.2104 23.0374 34.3166 22.7499 34.3166C22.4623 34.3166 22.2123 34.2104 21.9998 33.9979C21.7873 33.7854 21.6811 33.5354 21.6811 33.2478C21.6811 32.9603 21.7873 32.7103 21.9998 32.4978L30.3814 24.1162L23.0311 24.1162C22.7311 24.1162 22.4842 24.0131 22.2905 23.8068C22.0967 23.6006 21.9998 23.3474 21.9998 23.0474C22.0123 22.7599 22.1155 22.513 22.3092 22.3068C22.503 22.1005 22.7499 21.9974 23.0499 21.9974L32.9503 21.9974C33.1003 21.9974 33.2347 22.0255 33.3534 22.0818C33.4722 22.138 33.5815 22.2161 33.6815 22.3162C33.7815 22.4162 33.8597 22.5255 33.9159 22.6443C33.9722 22.763 34.0003 22.8974 34.0003 23.0474L34.0003 32.9478C34.0003 33.2228 33.8972 33.4635 33.6909 33.6697C33.4847 33.876 33.2378 33.9854 32.9503 33.9979C32.6503 33.9979 32.3971 33.8947 32.1909 33.6885C31.9846 33.4822 31.8815 33.2291 31.8815 32.9291L31.8815 25.6163Z" fill="#F86830"/>
    </g>
    </g>
    <defs>
    <clipPath id="clip0_359_621">
    <rect width="24" height="24" fill="white" transform="translate(16 16)"/>
    </clipPath>
    </defs>
</svg>