<svg width="37" height="37" viewBox="0 0 37 37" fill="none" xmlns="http://www.w3.org/2000/svg">
    <g clip-path="url(#clip0_171_1973)">
    <path d="M31.1 0.5H5.9C2.91766 0.5 0.5 2.91766 0.5 5.9V31.1C0.5 34.0823 2.91766 36.5 5.9 36.5H31.1C34.0823 36.5 36.5 34.0823 36.5 31.1V5.9C36.5 2.91766 34.0823 0.5 31.1 0.5Z" fill="#FF5500"/>
    <path d="M4.64917 19.4848L4.43823 21.0317L4.64917 22.5786C4.64917 22.7192 4.86011 22.7192 4.86011 22.5786L5.07104 21.0317L4.86011 19.4848C4.86011 19.2739 4.64917 19.2739 4.64917 19.4848ZM5.91479 18.5005C5.91479 18.2895 5.70386 18.2895 5.70386 18.5005L5.35229 21.0317L5.63354 23.4926C5.63354 23.7036 5.91479 23.7036 5.91479 23.4926L6.19604 21.0317L5.91479 18.5005ZM10.0632 16.3911L9.85229 21.0317L9.99292 23.8442C9.99292 24.4067 10.4851 24.4067 10.4851 23.8442L10.7664 21.0317L10.4851 16.3911C10.4851 16.0395 10.0632 16.0395 10.0632 16.3911ZM7.88354 17.938L7.60229 21.0317L7.81323 23.8442C7.81323 24.2661 8.16479 24.2661 8.16479 23.8442L8.44604 21.0317L8.16479 17.938C8.16479 17.727 7.88354 17.727 7.88354 17.938ZM12.8054 23.8442L13.0164 21.0317L12.8054 14.8442C12.8054 14.4223 12.3132 14.4223 12.3132 14.8442L12.1023 21.0317L12.2429 23.8442C12.2429 24.4067 12.8054 24.4067 12.8054 23.8442ZM17.5867 23.8442L17.7273 21.0317L17.5867 13.8598C17.5867 13.3676 16.8835 13.3676 16.8835 13.8598L16.7429 21.0317L16.8835 23.8442C16.8835 24.4067 17.5867 24.4067 17.5867 23.8442ZM15.196 23.8442L15.407 21.0317L15.196 14.7739C15.196 14.352 14.5632 14.352 14.5632 14.7739L14.4226 21.0317L14.5632 23.8442C14.5632 24.4067 15.196 24.4067 15.196 23.8442ZM9.36011 23.8442L9.57104 21.0317L9.36011 18.1489C9.36011 17.938 8.93823 17.938 8.93823 18.1489L8.72729 21.0317L8.93823 23.8442C8.93823 24.3364 9.36011 24.3364 9.36011 23.8442ZM7.03979 23.8442L7.32104 21.0317L7.03979 18.0083C7.03979 17.7973 6.75854 17.7973 6.75854 18.0083L6.47729 21.0317L6.75854 23.8442C6.75854 24.1255 7.03979 24.1255 7.03979 23.8442ZM15.7585 15.0551L15.6179 21.0317L15.6882 23.8442C15.6882 24.4067 16.3914 24.4067 16.3914 23.8442L16.532 21.0317L16.3914 15.0551C16.3914 14.563 15.7585 14.563 15.7585 15.0551ZM11.6804 23.8442L11.8914 21.0317L11.6804 15.3364C11.6804 14.9145 11.1882 14.9145 11.1882 15.3364L10.9773 21.0317L11.1179 23.8442C11.1179 24.4067 11.6804 24.4067 11.6804 23.8442ZM14.0007 23.8442L14.2117 21.0317L14.0007 14.6333C14.0007 14.2114 13.4382 14.2114 13.4382 14.6333L13.2273 21.0317L13.4382 23.8442C13.4382 24.4067 14.0007 24.4067 14.0007 23.8442ZM27.782 17.5864C27.4304 13.5786 23.282 10.977 19.4851 12.4536C19.2039 12.5942 19.1335 12.6645 19.1335 12.8755V23.8442C19.1335 24.0551 19.2742 24.2661 19.4851 24.2661H29.1179C31.0164 24.2661 32.5632 22.7192 32.5632 20.8208C32.5632 18.2192 30.1023 16.813 27.782 17.5864ZM18.0789 13.227L17.8679 21.0317L18.0789 23.8442C18.0789 24.4067 18.782 24.4067 18.782 23.8442L18.9929 21.0317L18.782 13.227C18.782 12.7348 18.0789 12.7348 18.0789 13.227Z" fill="white"/>
    </g>
    <defs>
    <clipPath id="clip0_171_1973">
    <rect x="0.5" y="0.5" width="36" height="36" rx="18" fill="white"/>
    </clipPath>
    </defs>
</svg>