<svg width="239" height="32" viewBox="0 0 239 32" fill="none" xmlns="http://www.w3.org/2000/svg">
<g clip-path="url(#clip0_0_1)">
<mask id="mask0_0_1" style="mask-type:luminance" maskUnits="userSpaceOnUse" x="0" y="0" width="32" height="32">
<path d="M32 0H0V32H32V0Z" fill="white"/>
</mask>
<g mask="url(#mask0_0_1)">
<path fill-rule="evenodd" clip-rule="evenodd" d="M17.1429 0H14.8571V10.1205L11.0659 0.736931L8.94666 1.59318L12.8361 11.2198L5.49442 3.87816L3.87818 5.49442L10.9148 12.5311L1.79586 8.5469L0.880734 10.6414L10.5297 14.8571H0V17.1429H10.5297L0.880738 21.3586L1.79586 23.4531L10.9148 19.469L3.87818 26.5056L5.49442 28.1218L12.8361 20.7802L8.94666 30.4069L11.0659 31.263L14.8571 21.8795V32H17.1429V21.8795L20.9341 31.263L23.0533 30.4069L19.164 20.7802L26.5056 28.1218L28.1218 26.5056L21.0851 19.469L30.2042 23.4531L31.1192 21.3586L21.4704 17.1429H32V14.8571H21.4702L31.1192 10.6414L30.2042 8.5469L21.0851 12.5311L28.1218 5.4944L26.5056 3.87816L19.164 11.2198L23.0533 1.59318L20.9341 0.736931L17.1429 10.1205V0Z" fill="#F8E730"/>
</g>
</g>
<mask id="path-3-outside-1_0_1" maskUnits="userSpaceOnUse" x="44" y="5" width="195" height="21" fill="black">
<rect fill="white" x="44" y="5" width="195" height="21"/>
<path d="M57.608 11.856L55.52 11.832C55.544 11.112 55.568 10.272 55.184 9.624C54.92 9.192 54.536 8.88 53.552 8.76C53.168 8.712 52.088 8.64 50.936 8.64C50.384 8.64 49.832 8.64 49.28 8.712C49.208 8.712 48.608 8.76 48.224 8.952C47.504 9.312 47.192 9.984 47.192 11.496C47.192 11.616 47.192 12.12 47.264 12.552C47.432 13.824 48.296 14.232 49.448 14.328C51.008 14.448 52.592 14.472 54.152 14.64C55.64 14.784 56.384 15.12 56.888 15.648C57.848 16.608 57.896 18.216 57.896 19.488C57.896 20.592 57.752 21.984 56.984 22.872C56.6 23.304 56.144 23.544 55.616 23.736C54.68 24.072 53.816 24.192 51.824 24.192C51.68 24.192 49.736 24.24 48.512 24.048C46.928 23.832 46.232 23.256 45.8 22.632C45.176 21.744 45.08 20.712 45.056 18.576L47.048 18.6C47.072 19.032 47.072 19.488 47.096 19.944C47.12 20.112 47.12 20.88 47.456 21.456C47.624 21.744 47.888 22.056 48.608 22.224C49.112 22.344 50.264 22.368 51.656 22.368C52.328 22.368 53 22.368 53.672 22.296C54.752 22.2 55.208 21.912 55.448 21.432C55.64 21.072 55.808 20.28 55.808 19.272C55.784 17.952 55.568 17.232 55.016 16.872C54.44 16.488 53.48 16.488 51.968 16.416C50.984 16.368 50 16.296 49.016 16.2C47.48 16.032 46.784 15.696 46.232 15.168C45.104 14.088 45.176 12.36 45.176 11.928C45.176 10.56 45.224 8.784 46.376 7.8C47.144 7.152 48.296 6.864 50.432 6.864C53.288 6.864 55.016 6.888 56.168 7.656C56.672 7.992 57.008 8.448 57.248 9.024C57.608 9.936 57.608 10.848 57.608 11.856ZM68.8516 6.792H70.0516C71.5396 6.792 73.2676 6.864 74.5636 7.704C75.3796 8.256 75.7876 8.952 76.0516 9.864C76.5076 11.4 76.4836 12.936 76.4836 16.152C76.4836 16.896 76.4596 17.64 76.4356 18.384C76.3636 20.232 76.0996 22.296 74.3716 23.352C73.1716 24.096 71.6356 24.192 70.2916 24.192C69.7636 24.192 69.2596 24.168 68.7316 24.168C68.5156 24.168 66.8116 24.192 65.5876 23.928C65.0596 23.832 63.6436 23.472 62.8516 22.056C62.2516 20.976 62.1076 19.704 62.0356 17.232C62.0116 16.44 62.0116 15.672 62.0116 14.904C62.0116 14.208 62.0116 13.536 62.0356 12.864C62.0836 11.304 62.2036 9.504 63.3076 8.28C64.3876 7.08 65.8276 6.816 68.8516 6.792ZM68.4916 8.64C66.2596 8.712 65.2516 8.688 64.6036 9.816C64.0996 10.68 64.1476 11.784 64.1236 12.744C64.0996 13.536 64.0756 14.352 64.0756 15.168C64.0756 16.32 64.1236 17.472 64.1716 18.6C64.1956 19.344 64.2196 20.304 64.5556 21C65.0836 22.032 66.0916 22.2 66.4516 22.248C66.8116 22.296 68.1316 22.32 69.3556 22.32C70.0036 22.32 70.6276 22.32 71.2756 22.272C71.4196 22.272 72.2596 22.272 72.8596 22.008C73.9876 21.528 74.1556 20.4 74.2036 20.04C74.3236 19.2 74.3716 17.976 74.3716 16.008C74.3716 14.832 74.3716 13.656 74.3236 12.48C74.2996 11.016 74.2036 9.288 72.4516 8.832C71.7076 8.64 70.3636 8.592 68.4916 8.64ZM81.1274 7.056H83.1914V18.648C83.2154 20.4 83.2154 21.216 84.0074 21.816C84.5834 22.248 85.2074 22.296 86.4074 22.32C86.9594 22.344 87.4874 22.344 88.0394 22.344C89.5994 22.344 90.7754 22.296 91.3994 22.056C91.5194 22.008 91.9994 21.768 92.2634 21.264C92.5754 20.688 92.6234 19.824 92.6474 18.48V7.056H94.7354V18.792C94.7354 19.224 94.7354 19.68 94.6874 20.112C94.5674 21.72 94.1354 22.392 93.6554 22.872C93.3914 23.136 93.1274 23.328 92.8874 23.448C91.5434 24.192 89.5994 24.192 88.2074 24.192C87.5834 24.192 86.9354 24.168 86.3114 24.144C85.7114 24.12 85.1114 24.072 84.5114 23.976C83.6234 23.832 82.6634 23.616 81.9434 22.656C81.2954 21.792 81.1514 20.736 81.1274 18.864V7.056ZM99.7632 7.056H103.027L110.947 19.92C111.427 20.712 111.907 21.504 112.387 22.272L112.243 7.056H114.355V24H111.091L103.123 11.016C102.667 10.272 102.211 9.528 101.731 8.784L101.875 24H99.7632V7.056ZM119.527 7.056H126.655C128.311 7.056 130.087 7.032 131.503 8.04C131.599 8.112 132.007 8.424 132.295 8.784C132.559 9.12 132.775 9.504 132.943 9.888C133.447 11.112 133.567 12.528 133.567 15.312C133.567 16.584 133.591 17.856 133.423 19.128C133.183 21.24 132.535 22.2 131.791 22.872C130.519 24 128.647 24 127.063 24H119.527V7.056ZM121.639 8.976V22.2H126.847C127.183 22.2 127.495 22.2 127.831 22.176C128.959 22.128 130.063 21.984 130.735 20.904C131.455 19.752 131.383 17.88 131.407 16.536C131.407 16.056 131.431 15.576 131.431 15.096C131.431 14.208 131.383 13.344 131.311 12.456C131.215 11.256 131.071 10.08 129.895 9.432C129.151 9.048 128.335 8.976 126.631 8.976H121.639ZM146.442 7.056H153.57C155.226 7.056 157.002 7.032 158.418 8.04C158.514 8.112 158.922 8.424 159.21 8.784C159.474 9.12 159.69 9.504 159.858 9.888C160.362 11.112 160.482 12.528 160.482 15.312C160.482 16.584 160.506 17.856 160.338 19.128C160.098 21.24 159.45 22.2 158.706 22.872C157.434 24 155.562 24 153.978 24H146.442V7.056ZM148.554 8.976V22.2H153.762C154.098 22.2 154.41 22.2 154.746 22.176C155.874 22.128 156.978 21.984 157.65 20.904C158.37 19.752 158.298 17.88 158.322 16.536C158.322 16.056 158.346 15.576 158.346 15.096C158.346 14.208 158.298 13.344 158.226 12.456C158.13 11.256 157.986 10.08 156.81 9.432C156.066 9.048 155.25 8.976 153.546 8.976H148.554ZM165.15 7.056H175.926V8.832H167.166V14.4H175.614V16.128H167.166V22.176H176.046V24H165.15V7.056ZM192.271 11.856L190.183 11.832C190.207 11.112 190.231 10.272 189.847 9.624C189.583 9.192 189.199 8.88 188.215 8.76C187.831 8.712 186.751 8.64 185.599 8.64C185.047 8.64 184.495 8.64 183.943 8.712C183.871 8.712 183.271 8.76 182.887 8.952C182.167 9.312 181.855 9.984 181.855 11.496C181.855 11.616 181.855 12.12 181.927 12.552C182.095 13.824 182.959 14.232 184.111 14.328C185.671 14.448 187.255 14.472 188.815 14.64C190.303 14.784 191.047 15.12 191.551 15.648C192.511 16.608 192.559 18.216 192.559 19.488C192.559 20.592 192.415 21.984 191.647 22.872C191.263 23.304 190.807 23.544 190.279 23.736C189.343 24.072 188.479 24.192 186.487 24.192C186.343 24.192 184.399 24.24 183.175 24.048C181.591 23.832 180.895 23.256 180.463 22.632C179.839 21.744 179.743 20.712 179.719 18.576L181.711 18.6C181.735 19.032 181.735 19.488 181.759 19.944C181.783 20.112 181.783 20.88 182.119 21.456C182.287 21.744 182.551 22.056 183.271 22.224C183.775 22.344 184.927 22.368 186.319 22.368C186.991 22.368 187.663 22.368 188.335 22.296C189.415 22.2 189.871 21.912 190.111 21.432C190.303 21.072 190.471 20.28 190.471 19.272C190.447 17.952 190.231 17.232 189.679 16.872C189.103 16.488 188.143 16.488 186.631 16.416C185.647 16.368 184.663 16.296 183.679 16.2C182.143 16.032 181.447 15.696 180.895 15.168C179.767 14.088 179.839 12.36 179.839 11.928C179.839 10.56 179.887 8.784 181.039 7.8C181.807 7.152 182.959 6.864 185.095 6.864C187.951 6.864 189.679 6.888 190.831 7.656C191.335 7.992 191.671 8.448 191.911 9.024C192.271 9.936 192.271 10.848 192.271 11.856ZM197.082 7.056H199.17V24H197.082V7.056ZM217.818 12.216H215.706C215.73 10.848 215.754 9.96 215.202 9.408C214.65 8.88 213.834 8.832 212.514 8.76C211.842 8.736 211.194 8.736 210.522 8.736C209.97 8.736 209.418 8.736 208.866 8.76C208.122 8.784 206.994 8.832 206.394 9.864C206.01 10.56 205.962 11.352 205.914 12.792C205.89 13.584 205.89 14.376 205.89 15.168C205.89 16.176 205.914 17.232 205.938 18.216C205.962 18.672 205.962 19.08 206.01 19.56C206.082 20.232 206.154 20.952 206.706 21.504C207.498 22.32 208.698 22.272 209.706 22.272C210.234 22.296 210.786 22.296 211.29 22.296C211.842 22.296 212.274 22.296 212.73 22.272C213.402 22.248 214.746 22.272 215.37 21.432C215.826 20.832 215.826 19.8 215.826 18.888V17.376H210.426V15.552H217.818C217.818 16.824 217.842 18.072 217.794 19.344C217.794 19.608 217.842 21.072 217.266 22.2C217.17 22.368 216.978 22.824 216.498 23.184C215.226 24.24 212.922 24.216 211.674 24.216C210.738 24.216 209.778 24.192 208.818 24.12C208.53 24.096 207.066 24.072 205.866 23.376C205.41 23.112 204.81 22.608 204.426 21.672C203.754 19.944 203.826 17.304 203.826 15.6C203.826 14.328 203.802 13.032 203.874 11.736C203.898 11.52 203.946 9.744 204.906 8.496C205.41 7.824 206.058 7.368 207.306 7.128C207.978 7.008 209.298 6.888 211.026 6.888C211.626 6.888 212.25 6.912 212.874 6.936C214.794 7.008 216.042 7.248 216.858 8.112C217.674 8.976 217.794 10.224 217.818 12.216ZM222.449 7.056H225.713L233.633 19.92C234.113 20.712 234.593 21.504 235.073 22.272L234.929 7.056H237.041V24H233.777L225.809 11.016C225.353 10.272 224.897 9.528 224.417 8.784L224.561 24H222.449V7.056Z"/>
</mask>
<path d="M57.608 11.856L55.52 11.832C55.544 11.112 55.568 10.272 55.184 9.624C54.92 9.192 54.536 8.88 53.552 8.76C53.168 8.712 52.088 8.64 50.936 8.64C50.384 8.64 49.832 8.64 49.28 8.712C49.208 8.712 48.608 8.76 48.224 8.952C47.504 9.312 47.192 9.984 47.192 11.496C47.192 11.616 47.192 12.12 47.264 12.552C47.432 13.824 48.296 14.232 49.448 14.328C51.008 14.448 52.592 14.472 54.152 14.64C55.64 14.784 56.384 15.12 56.888 15.648C57.848 16.608 57.896 18.216 57.896 19.488C57.896 20.592 57.752 21.984 56.984 22.872C56.6 23.304 56.144 23.544 55.616 23.736C54.68 24.072 53.816 24.192 51.824 24.192C51.68 24.192 49.736 24.24 48.512 24.048C46.928 23.832 46.232 23.256 45.8 22.632C45.176 21.744 45.08 20.712 45.056 18.576L47.048 18.6C47.072 19.032 47.072 19.488 47.096 19.944C47.12 20.112 47.12 20.88 47.456 21.456C47.624 21.744 47.888 22.056 48.608 22.224C49.112 22.344 50.264 22.368 51.656 22.368C52.328 22.368 53 22.368 53.672 22.296C54.752 22.2 55.208 21.912 55.448 21.432C55.64 21.072 55.808 20.28 55.808 19.272C55.784 17.952 55.568 17.232 55.016 16.872C54.44 16.488 53.48 16.488 51.968 16.416C50.984 16.368 50 16.296 49.016 16.2C47.48 16.032 46.784 15.696 46.232 15.168C45.104 14.088 45.176 12.36 45.176 11.928C45.176 10.56 45.224 8.784 46.376 7.8C47.144 7.152 48.296 6.864 50.432 6.864C53.288 6.864 55.016 6.888 56.168 7.656C56.672 7.992 57.008 8.448 57.248 9.024C57.608 9.936 57.608 10.848 57.608 11.856ZM68.8516 6.792H70.0516C71.5396 6.792 73.2676 6.864 74.5636 7.704C75.3796 8.256 75.7876 8.952 76.0516 9.864C76.5076 11.4 76.4836 12.936 76.4836 16.152C76.4836 16.896 76.4596 17.64 76.4356 18.384C76.3636 20.232 76.0996 22.296 74.3716 23.352C73.1716 24.096 71.6356 24.192 70.2916 24.192C69.7636 24.192 69.2596 24.168 68.7316 24.168C68.5156 24.168 66.8116 24.192 65.5876 23.928C65.0596 23.832 63.6436 23.472 62.8516 22.056C62.2516 20.976 62.1076 19.704 62.0356 17.232C62.0116 16.44 62.0116 15.672 62.0116 14.904C62.0116 14.208 62.0116 13.536 62.0356 12.864C62.0836 11.304 62.2036 9.504 63.3076 8.28C64.3876 7.08 65.8276 6.816 68.8516 6.792ZM68.4916 8.64C66.2596 8.712 65.2516 8.688 64.6036 9.816C64.0996 10.68 64.1476 11.784 64.1236 12.744C64.0996 13.536 64.0756 14.352 64.0756 15.168C64.0756 16.32 64.1236 17.472 64.1716 18.6C64.1956 19.344 64.2196 20.304 64.5556 21C65.0836 22.032 66.0916 22.2 66.4516 22.248C66.8116 22.296 68.1316 22.32 69.3556 22.32C70.0036 22.32 70.6276 22.32 71.2756 22.272C71.4196 22.272 72.2596 22.272 72.8596 22.008C73.9876 21.528 74.1556 20.4 74.2036 20.04C74.3236 19.2 74.3716 17.976 74.3716 16.008C74.3716 14.832 74.3716 13.656 74.3236 12.48C74.2996 11.016 74.2036 9.288 72.4516 8.832C71.7076 8.64 70.3636 8.592 68.4916 8.64ZM81.1274 7.056H83.1914V18.648C83.2154 20.4 83.2154 21.216 84.0074 21.816C84.5834 22.248 85.2074 22.296 86.4074 22.32C86.9594 22.344 87.4874 22.344 88.0394 22.344C89.5994 22.344 90.7754 22.296 91.3994 22.056C91.5194 22.008 91.9994 21.768 92.2634 21.264C92.5754 20.688 92.6234 19.824 92.6474 18.48V7.056H94.7354V18.792C94.7354 19.224 94.7354 19.68 94.6874 20.112C94.5674 21.72 94.1354 22.392 93.6554 22.872C93.3914 23.136 93.1274 23.328 92.8874 23.448C91.5434 24.192 89.5994 24.192 88.2074 24.192C87.5834 24.192 86.9354 24.168 86.3114 24.144C85.7114 24.12 85.1114 24.072 84.5114 23.976C83.6234 23.832 82.6634 23.616 81.9434 22.656C81.2954 21.792 81.1514 20.736 81.1274 18.864V7.056ZM99.7632 7.056H103.027L110.947 19.92C111.427 20.712 111.907 21.504 112.387 22.272L112.243 7.056H114.355V24H111.091L103.123 11.016C102.667 10.272 102.211 9.528 101.731 8.784L101.875 24H99.7632V7.056ZM119.527 7.056H126.655C128.311 7.056 130.087 7.032 131.503 8.04C131.599 8.112 132.007 8.424 132.295 8.784C132.559 9.12 132.775 9.504 132.943 9.888C133.447 11.112 133.567 12.528 133.567 15.312C133.567 16.584 133.591 17.856 133.423 19.128C133.183 21.24 132.535 22.2 131.791 22.872C130.519 24 128.647 24 127.063 24H119.527V7.056ZM121.639 8.976V22.2H126.847C127.183 22.2 127.495 22.2 127.831 22.176C128.959 22.128 130.063 21.984 130.735 20.904C131.455 19.752 131.383 17.88 131.407 16.536C131.407 16.056 131.431 15.576 131.431 15.096C131.431 14.208 131.383 13.344 131.311 12.456C131.215 11.256 131.071 10.08 129.895 9.432C129.151 9.048 128.335 8.976 126.631 8.976H121.639ZM146.442 7.056H153.57C155.226 7.056 157.002 7.032 158.418 8.04C158.514 8.112 158.922 8.424 159.21 8.784C159.474 9.12 159.69 9.504 159.858 9.888C160.362 11.112 160.482 12.528 160.482 15.312C160.482 16.584 160.506 17.856 160.338 19.128C160.098 21.24 159.45 22.2 158.706 22.872C157.434 24 155.562 24 153.978 24H146.442V7.056ZM148.554 8.976V22.2H153.762C154.098 22.2 154.41 22.2 154.746 22.176C155.874 22.128 156.978 21.984 157.65 20.904C158.37 19.752 158.298 17.88 158.322 16.536C158.322 16.056 158.346 15.576 158.346 15.096C158.346 14.208 158.298 13.344 158.226 12.456C158.13 11.256 157.986 10.08 156.81 9.432C156.066 9.048 155.25 8.976 153.546 8.976H148.554ZM165.15 7.056H175.926V8.832H167.166V14.4H175.614V16.128H167.166V22.176H176.046V24H165.15V7.056ZM192.271 11.856L190.183 11.832C190.207 11.112 190.231 10.272 189.847 9.624C189.583 9.192 189.199 8.88 188.215 8.76C187.831 8.712 186.751 8.64 185.599 8.64C185.047 8.64 184.495 8.64 183.943 8.712C183.871 8.712 183.271 8.76 182.887 8.952C182.167 9.312 181.855 9.984 181.855 11.496C181.855 11.616 181.855 12.12 181.927 12.552C182.095 13.824 182.959 14.232 184.111 14.328C185.671 14.448 187.255 14.472 188.815 14.64C190.303 14.784 191.047 15.12 191.551 15.648C192.511 16.608 192.559 18.216 192.559 19.488C192.559 20.592 192.415 21.984 191.647 22.872C191.263 23.304 190.807 23.544 190.279 23.736C189.343 24.072 188.479 24.192 186.487 24.192C186.343 24.192 184.399 24.24 183.175 24.048C181.591 23.832 180.895 23.256 180.463 22.632C179.839 21.744 179.743 20.712 179.719 18.576L181.711 18.6C181.735 19.032 181.735 19.488 181.759 19.944C181.783 20.112 181.783 20.88 182.119 21.456C182.287 21.744 182.551 22.056 183.271 22.224C183.775 22.344 184.927 22.368 186.319 22.368C186.991 22.368 187.663 22.368 188.335 22.296C189.415 22.2 189.871 21.912 190.111 21.432C190.303 21.072 190.471 20.28 190.471 19.272C190.447 17.952 190.231 17.232 189.679 16.872C189.103 16.488 188.143 16.488 186.631 16.416C185.647 16.368 184.663 16.296 183.679 16.2C182.143 16.032 181.447 15.696 180.895 15.168C179.767 14.088 179.839 12.36 179.839 11.928C179.839 10.56 179.887 8.784 181.039 7.8C181.807 7.152 182.959 6.864 185.095 6.864C187.951 6.864 189.679 6.888 190.831 7.656C191.335 7.992 191.671 8.448 191.911 9.024C192.271 9.936 192.271 10.848 192.271 11.856ZM197.082 7.056H199.17V24H197.082V7.056ZM217.818 12.216H215.706C215.73 10.848 215.754 9.96 215.202 9.408C214.65 8.88 213.834 8.832 212.514 8.76C211.842 8.736 211.194 8.736 210.522 8.736C209.97 8.736 209.418 8.736 208.866 8.76C208.122 8.784 206.994 8.832 206.394 9.864C206.01 10.56 205.962 11.352 205.914 12.792C205.89 13.584 205.89 14.376 205.89 15.168C205.89 16.176 205.914 17.232 205.938 18.216C205.962 18.672 205.962 19.08 206.01 19.56C206.082 20.232 206.154 20.952 206.706 21.504C207.498 22.32 208.698 22.272 209.706 22.272C210.234 22.296 210.786 22.296 211.29 22.296C211.842 22.296 212.274 22.296 212.73 22.272C213.402 22.248 214.746 22.272 215.37 21.432C215.826 20.832 215.826 19.8 215.826 18.888V17.376H210.426V15.552H217.818C217.818 16.824 217.842 18.072 217.794 19.344C217.794 19.608 217.842 21.072 217.266 22.2C217.17 22.368 216.978 22.824 216.498 23.184C215.226 24.24 212.922 24.216 211.674 24.216C210.738 24.216 209.778 24.192 208.818 24.12C208.53 24.096 207.066 24.072 205.866 23.376C205.41 23.112 204.81 22.608 204.426 21.672C203.754 19.944 203.826 17.304 203.826 15.6C203.826 14.328 203.802 13.032 203.874 11.736C203.898 11.52 203.946 9.744 204.906 8.496C205.41 7.824 206.058 7.368 207.306 7.128C207.978 7.008 209.298 6.888 211.026 6.888C211.626 6.888 212.25 6.912 212.874 6.936C214.794 7.008 216.042 7.248 216.858 8.112C217.674 8.976 217.794 10.224 217.818 12.216ZM222.449 7.056H225.713L233.633 19.92C234.113 20.712 234.593 21.504 235.073 22.272L234.929 7.056H237.041V24H233.777L225.809 11.016C225.353 10.272 224.897 9.528 224.417 8.784L224.561 24H222.449V7.056Z" fill="white"/>
<path d="M57.608 11.856L57.5965 12.8559L58.608 12.8676V11.856H57.608ZM55.52 11.832L54.5206 11.7987L54.4865 12.8202L55.5085 12.8319L55.52 11.832ZM55.184 9.624L56.0444 9.11415L56.0373 9.10255L55.184 9.624ZM53.552 8.76L53.428 9.75228L53.4309 9.75264L53.552 8.76ZM49.28 8.712V9.712H49.3449L49.4093 9.7036L49.28 8.712ZM48.224 8.952L48.6712 9.84643L48.6712 9.84643L48.224 8.952ZM47.264 12.552L48.2554 12.4211L48.2532 12.4043L48.2504 12.3876L47.264 12.552ZM49.448 14.328L49.365 15.3246L49.3713 15.3251L49.448 14.328ZM54.152 14.64L54.0449 15.6343L54.0557 15.6353L54.152 14.64ZM56.888 15.648L56.1646 16.3385L56.1727 16.3469L56.1809 16.3551L56.888 15.648ZM56.984 22.872L57.7315 23.5364L57.7404 23.5262L56.984 22.872ZM55.616 23.736L55.9539 24.6772L55.9577 24.6758L55.616 23.736ZM48.512 24.048L48.667 23.0601L48.6571 23.0585L48.6471 23.0572L48.512 24.048ZM45.8 22.632L46.6222 22.0628L46.6182 22.0571L45.8 22.632ZM45.056 18.576L45.068 17.5761L44.0446 17.5637L44.0561 18.5872L45.056 18.576ZM47.048 18.6L48.0465 18.5445L47.9946 17.6113L47.06 17.6001L47.048 18.6ZM47.096 19.944L46.0974 19.9966L46.0997 20.0412L46.1061 20.0854L47.096 19.944ZM48.608 22.224L48.8396 21.2512L48.8352 21.2502L48.608 22.224ZM53.672 22.296L53.5835 21.2999L53.5745 21.3007L53.5655 21.3017L53.672 22.296ZM55.448 21.432L54.5656 20.9614L54.5595 20.973L54.5536 20.9848L55.448 21.432ZM55.808 19.272H56.808V19.2629L56.8078 19.2538L55.808 19.272ZM55.016 16.872L54.4613 17.7041L54.4697 17.7096L55.016 16.872ZM51.968 16.416L51.9193 17.4148L51.9204 17.4149L51.968 16.416ZM49.016 16.2L48.9073 17.1941L48.9189 17.1953L49.016 16.2ZM46.232 15.168L45.5404 15.8903L45.5408 15.8906L46.232 15.168ZM46.376 7.8L45.7311 7.03569L45.7265 7.03963L46.376 7.8ZM56.168 7.656L56.7227 6.82395V6.82395L56.168 7.656ZM57.248 9.024L58.1782 8.65683L58.1747 8.64808L58.1711 8.63938L57.248 9.024ZM57.6195 10.8561L55.5315 10.8321L55.5085 12.8319L57.5965 12.8559L57.6195 10.8561ZM56.5194 11.8653C56.5412 11.2131 56.6037 10.0582 56.0443 9.1142L54.3237 10.1338C54.5323 10.4858 54.5468 11.0109 54.5206 11.7987L56.5194 11.8653ZM56.0373 9.10255C55.8409 8.78118 55.5693 8.46055 55.1419 8.21122C54.733 7.97273 54.2461 7.83723 53.6731 7.76735L53.4309 9.75264C53.8419 9.80277 54.039 9.88327 54.1341 9.93878C54.2107 9.98345 54.2631 10.0348 54.3307 10.1454L56.0373 9.10255ZM53.676 7.76772C53.2384 7.71302 52.1146 7.64 50.936 7.64V9.64C52.0614 9.64 53.0976 9.71098 53.428 9.75228L53.676 7.76772ZM50.936 7.64C50.3945 7.64 49.7777 7.63862 49.1507 7.7204L49.4093 9.7036C49.8863 9.64138 50.3735 9.64 50.936 9.64V7.64ZM49.28 7.712C49.1659 7.712 48.9364 7.73327 48.6977 7.77479C48.459 7.81629 48.0995 7.89624 47.7768 8.05757L48.6712 9.84643C48.6938 9.83514 48.7399 9.81642 48.813 9.79575C48.8834 9.77585 48.9617 9.75888 49.0403 9.74521C49.1182 9.73166 49.189 9.72264 49.2417 9.71717C49.2679 9.71445 49.2877 9.71283 49.2997 9.71198C49.3194 9.7106 49.3077 9.712 49.28 9.712V7.712ZM47.7768 8.05757C47.2136 8.33914 46.7804 8.77203 46.5153 9.40641C46.2714 9.98998 46.192 10.6925 46.192 11.496H48.192C48.192 10.7875 48.2686 10.398 48.3607 10.1776C48.4316 10.008 48.5144 9.92486 48.6712 9.84643L47.7768 8.05757ZM46.192 11.496C46.192 11.6116 46.1903 12.1926 46.2776 12.7164L48.2504 12.3876C48.1937 12.0474 48.192 11.6204 48.192 11.496H46.192ZM46.2726 12.6829C46.3871 13.5498 46.7657 14.2361 47.4046 14.6939C48 15.1205 48.7154 15.2704 49.365 15.3245L49.531 13.3315C49.0286 13.2896 48.736 13.1875 48.5694 13.0681C48.4463 12.9799 48.3089 12.8262 48.2554 12.4211L46.2726 12.6829ZM49.3713 15.3251C51.0376 15.4532 52.4814 15.4659 54.0449 15.6343L54.2591 13.6457C52.7026 13.4781 50.9784 13.4428 49.5247 13.3309L49.3713 15.3251ZM54.0557 15.6353C55.4371 15.769 55.8994 16.0606 56.1646 16.3385L57.6114 14.9575C56.8686 14.1794 55.8429 13.799 54.2483 13.6446L54.0557 15.6353ZM56.1809 16.3551C56.4664 16.6406 56.6587 17.0656 56.7703 17.6413C56.8822 18.2186 56.896 18.8526 56.896 19.488H58.896C58.896 18.8514 58.8858 18.0454 58.7337 17.2607C58.5813 16.4744 58.2696 15.6154 57.5951 14.9409L56.1809 16.3551ZM56.896 19.488C56.896 20.5856 56.7337 21.6327 56.2276 22.2178L57.7404 23.5262C58.7703 22.3353 58.896 20.5984 58.896 19.488H56.896ZM56.2366 22.2076C56.0056 22.4675 55.7206 22.6339 55.2743 22.7962L55.9577 24.6758C56.5674 24.4541 57.1944 24.1405 57.7314 23.5364L56.2366 22.2076ZM55.2781 22.7948C54.5044 23.0726 53.7769 23.192 51.824 23.192V25.192C53.8551 25.192 54.8556 25.0714 55.9539 24.6772L55.2781 22.7948ZM51.824 23.192C51.6219 23.192 49.7911 23.2364 48.667 23.0601L48.357 25.0359C49.0404 25.1431 49.8895 25.1797 50.5547 25.1918C50.8938 25.198 51.1972 25.198 51.4246 25.1965C51.5385 25.1957 51.6334 25.1946 51.7041 25.1936C51.732 25.1932 51.7758 25.1926 51.7901 25.1924C51.8011 25.1923 51.8095 25.1921 51.816 25.1921C51.8232 25.192 51.8251 25.192 51.824 25.192V23.192ZM48.6471 23.0572C47.9525 22.9625 47.5155 22.7973 47.2286 22.6297C46.9504 22.4671 46.7707 22.2773 46.6222 22.0628L44.9778 23.2012C45.2613 23.6107 45.6456 24.0209 46.2194 24.3563C46.7845 24.6867 47.4875 24.9176 48.3769 25.0388L48.6471 23.0572ZM46.6182 22.0571C46.2005 21.4626 46.0805 20.7544 46.0559 18.5648L44.0561 18.5872C44.0795 20.6696 44.1515 22.0254 44.9818 23.2069L46.6182 22.0571ZM45.044 19.5759L47.036 19.5999L47.06 17.6001L45.068 17.5761L45.044 19.5759ZM46.0495 18.6555C46.0606 18.8547 46.0663 19.0623 46.0724 19.2897C46.0783 19.5122 46.0846 19.7534 46.0974 19.9966L48.0946 19.8914C48.0834 19.6786 48.0777 19.4638 48.0716 19.2363C48.0657 19.0137 48.0594 18.7773 48.0465 18.5445L46.0495 18.6555ZM46.1061 20.0854C46.1037 20.0689 46.1042 20.0666 46.1076 20.1106C46.1099 20.1407 46.114 20.1972 46.1185 20.2523C46.1282 20.3696 46.1434 20.5264 46.1712 20.703C46.2249 21.0425 46.3344 21.5179 46.5922 21.9599L48.3198 20.9521C48.2416 20.8181 48.1831 20.6215 48.1468 20.391C48.1296 20.2826 48.1193 20.1799 48.1117 20.088C48.1077 20.0384 48.1052 20.0029 48.1016 19.9565C48.0991 19.9241 48.0943 19.8611 48.0859 19.8026L46.1061 20.0854ZM46.5922 21.9599C46.7164 22.1728 46.9035 22.4398 47.2186 22.6801C47.5294 22.9172 47.9122 23.0885 48.3808 23.1978L48.8352 21.2502C48.5838 21.1915 48.4746 21.1228 48.4314 21.0899C48.3925 21.0602 48.3636 21.0272 48.3198 20.9521L46.5922 21.9599ZM48.3764 23.1968C48.734 23.282 49.2375 23.3193 49.759 23.3402C50.3048 23.362 50.9572 23.368 51.656 23.368V21.368C50.9628 21.368 50.3432 21.362 49.839 21.3418C49.3105 21.3207 48.986 21.286 48.8396 21.2512L48.3764 23.1968ZM51.656 23.368C52.3193 23.368 53.0446 23.3689 53.7785 23.2903L53.5655 21.3017C52.9554 21.3671 52.3367 21.368 51.656 21.368V23.368ZM53.7605 23.2921C54.3616 23.2386 54.8912 23.125 55.3336 22.8966C55.8102 22.6507 56.1324 22.2994 56.3424 21.8792L54.5536 20.9848C54.5237 21.0446 54.4978 21.0773 54.4164 21.1194C54.3008 21.179 54.0624 21.2574 53.5835 21.2999L53.7605 23.2921ZM56.3304 21.9026C56.6376 21.3266 56.808 20.3381 56.808 19.272H54.808C54.808 19.7226 54.7703 20.1133 54.7156 20.4189C54.6578 20.7422 54.5911 20.9138 54.5656 20.9614L56.3304 21.9026ZM56.8078 19.2538C56.784 17.9447 56.5901 16.7047 55.5623 16.0344L54.4697 17.7096C54.5129 17.7377 54.5861 17.7956 54.6584 18.0194C54.7395 18.2703 54.7968 18.665 54.8082 19.2902L56.8078 19.2538ZM55.5707 16.0399C55.0784 15.7118 54.4977 15.595 53.956 15.5334C53.4118 15.4715 52.7384 15.4516 52.0156 15.4171L51.9204 17.4149C52.7096 17.4524 53.2722 17.4685 53.73 17.5206C54.1903 17.573 54.3776 17.6482 54.4613 17.7041L55.5707 16.0399ZM52.0167 15.4172C51.0489 15.37 50.0811 15.2992 49.1131 15.2047L48.9189 17.1953C49.9189 17.2928 50.9191 17.366 51.9193 17.4148L52.0167 15.4172ZM49.1247 15.2059C47.7136 15.0516 47.2593 14.7669 46.9232 14.4454L45.5408 15.8906C46.3087 16.6251 47.2464 17.0124 48.9073 17.1941L49.1247 15.2059ZM46.9236 14.4457C46.5619 14.0994 46.3625 13.6185 46.2619 13.1107C46.1616 12.6041 46.176 12.1677 46.176 11.928H44.176C44.176 12.1203 44.1544 12.7639 44.3001 13.4993C44.4455 14.2335 44.7741 15.1566 45.5404 15.8903L46.9236 14.4457ZM46.176 11.928C46.176 11.2419 46.1904 10.5512 46.3224 9.92681C46.4532 9.30778 46.6794 8.85601 47.0255 8.56037L45.7265 7.03963C44.9206 7.72799 44.5468 8.65622 44.3656 9.51319C44.1856 10.3648 44.176 11.2461 44.176 11.928H46.176ZM47.0209 8.56429C47.5002 8.15984 48.3349 7.864 50.432 7.864V5.864C48.2571 5.864 46.7878 6.14416 45.7311 7.03571L47.0209 8.56429ZM50.432 7.864C51.8747 7.864 52.9622 7.87117 53.8303 7.96608C54.692 8.06028 55.229 8.23186 55.6133 8.48805L56.7227 6.82395C55.955 6.31214 55.052 6.08772 54.0477 5.97792C53.0498 5.86882 51.8453 5.864 50.432 5.864V7.864ZM55.6133 8.48805C55.9214 8.69344 56.1448 8.97626 56.3249 9.40862L58.1711 8.63938C57.8712 7.91974 57.4226 7.29056 56.7227 6.82395L55.6133 8.48805ZM56.3178 9.39117C56.597 10.0983 56.608 10.8186 56.608 11.856H58.608C58.608 10.8774 58.619 9.77374 58.1782 8.65683L56.3178 9.39117ZM68.8516 6.792V5.79197L68.8437 5.79203L68.8516 6.792ZM74.5636 7.704L75.1239 6.87572L75.1158 6.8702L75.1075 6.86485L74.5636 7.704ZM76.0516 9.864L75.091 10.1421L75.093 10.1486L76.0516 9.864ZM76.4356 18.384L77.4349 18.4229L77.4351 18.4162L76.4356 18.384ZM74.3716 23.352L73.8502 22.4987L73.8447 22.5021L74.3716 23.352ZM65.5876 23.928L65.7985 22.9505L65.7825 22.947L65.7665 22.9441L65.5876 23.928ZM62.8516 22.056L61.9775 22.5416L61.9789 22.5442L62.8516 22.056ZM62.0356 17.232L63.0352 17.2029L63.0352 17.2017L62.0356 17.232ZM62.0356 12.864L63.035 12.8997L63.0352 12.8948L62.0356 12.864ZM63.3076 8.28L64.0502 8.94977L64.0509 8.94896L63.3076 8.28ZM68.4916 8.64L68.466 7.64031L68.4594 7.64052L68.4916 8.64ZM64.6036 9.816L65.4674 10.3199L65.4707 10.3141L64.6036 9.816ZM64.1236 12.744L65.1232 12.7743L65.1233 12.769L64.1236 12.744ZM64.1716 18.6L65.1712 18.5678L65.1707 18.5575L64.1716 18.6ZM64.5556 21L63.6551 21.4347L63.6601 21.4452L63.6654 21.4555L64.5556 21ZM66.4516 22.248L66.5838 21.2568L66.4516 22.248ZM71.2756 22.272V21.272H71.2386L71.2018 21.2747L71.2756 22.272ZM72.8596 22.008L72.468 21.0878L72.4569 21.0927L72.8596 22.008ZM74.2036 20.04L73.2136 19.8986L73.2124 19.9078L74.2036 20.04ZM74.3236 12.48L73.3238 12.4964L73.324 12.5086L73.3245 12.5208L74.3236 12.48ZM72.4516 8.832L72.7035 7.86424L72.7015 7.86372L72.4516 8.832ZM68.8516 7.792H70.0516V5.792H68.8516V7.792ZM70.0516 7.792C71.5688 7.792 73.0044 7.88506 74.0197 8.54315L75.1075 6.86485C73.5309 5.84293 71.5105 5.792 70.0516 5.792V7.792ZM74.0033 8.53228C74.5784 8.92129 74.8742 9.39282 75.0911 10.1421L77.0122 9.58594C76.7011 8.51118 76.1809 7.59071 75.1239 6.87572L74.0033 8.53228ZM75.093 10.1486C75.4975 11.5111 75.4836 12.8689 75.4836 16.152H77.4836C77.4836 13.0031 77.5178 11.2889 77.0103 9.5794L75.093 10.1486ZM75.4836 16.152C75.4836 16.8772 75.4602 17.6051 75.4361 18.3518L77.4351 18.4162C77.459 17.6749 77.4836 16.9148 77.4836 16.152H75.4836ZM75.4364 18.3451C75.3626 20.2377 75.076 21.7496 73.8502 22.4987L74.8931 24.2053C77.1233 22.8424 77.3646 20.2263 77.4349 18.4229L75.4364 18.3451ZM73.8447 22.5021C72.909 23.0823 71.6355 23.192 70.2916 23.192V25.192C71.6357 25.192 73.4343 25.1097 74.8986 24.2019L73.8447 22.5021ZM70.2916 23.192C70.0411 23.192 69.7946 23.1863 69.5349 23.1803C69.2786 23.1743 69.0091 23.168 68.7316 23.168V25.168C68.9821 25.168 69.2286 25.1737 69.4884 25.1797C69.7446 25.1857 70.0141 25.192 70.2916 25.192V23.192ZM68.7316 23.168C68.4799 23.168 66.8958 23.1871 65.7985 22.9505L65.3768 24.9055C66.7275 25.1968 68.5513 25.168 68.7316 25.168V23.168ZM65.7665 22.9441C65.3236 22.8636 64.2918 22.5823 63.7244 21.5678L61.9789 22.5442C62.9955 24.3617 64.7957 24.8004 65.4087 24.9119L65.7665 22.9441ZM63.7258 21.5704C63.2608 20.7335 63.108 19.7033 63.0352 17.2029L61.036 17.2611C61.1072 19.7047 61.2424 21.2185 61.9775 22.5416L63.7258 21.5704ZM63.0352 17.2017C63.0117 16.4273 63.0116 15.6742 63.0116 14.904H61.0116C61.0116 15.6698 61.0116 16.4527 61.0361 17.2623L63.0352 17.2017ZM63.0116 14.904C63.0116 14.2049 63.0117 13.5508 63.035 12.8997L61.0363 12.8283C61.0115 13.5212 61.0116 14.2111 61.0116 14.904H63.0116ZM63.0352 12.8948C63.0848 11.2803 63.2272 9.86225 64.0502 8.94977L62.5651 7.61023C61.1801 9.14575 61.0824 11.3276 61.0361 12.8332L63.0352 12.8948ZM64.0509 8.94896C64.806 8.11002 65.8077 7.81619 68.8596 7.79197L68.8437 5.79203C65.8475 5.81581 63.9693 6.04998 62.5643 7.61103L64.0509 8.94896ZM68.4594 7.64052C67.4055 7.67452 66.4607 7.68539 65.7246 7.85858C65.3281 7.95188 64.9423 8.10068 64.5894 8.35277C64.2334 8.60707 63.9576 8.93295 63.7365 9.31787L65.4707 10.3141C65.5736 10.1351 65.6669 10.0409 65.7519 9.98023C65.8399 9.91732 65.9672 9.85612 66.1827 9.80542C66.6706 9.69061 67.3458 9.67748 68.5239 9.63948L68.4594 7.64052ZM63.7398 9.31213C63.3886 9.91435 63.2509 10.5626 63.1893 11.1375C63.1295 11.6956 63.1347 12.2888 63.1239 12.719L65.1233 12.769C65.1366 12.2392 65.1297 11.8004 65.1779 11.3505C65.2243 10.9174 65.3147 10.5816 65.4674 10.3199L63.7398 9.31213ZM63.1241 12.7137C63.1001 13.5042 63.0756 14.3347 63.0756 15.168H65.0756C65.0756 14.3693 65.0991 13.5678 65.1232 12.7743L63.1241 12.7137ZM63.0756 15.168C63.0756 16.3445 63.1246 17.5171 63.1725 18.6425L65.1707 18.5575C65.1226 17.4269 65.0756 16.2955 65.0756 15.168H63.0756ZM63.1721 18.6322C63.1939 19.3062 63.2075 20.5076 63.6551 21.4347L65.4562 20.5653C65.2318 20.1004 65.1974 19.3818 65.1711 18.5678L63.1721 18.6322ZM63.6654 21.4555C64.4361 22.9619 65.9112 23.1848 66.3195 23.2392L66.5838 21.2568C66.272 21.2152 65.7312 21.1021 65.4459 20.5445L63.6654 21.4555ZM66.3195 23.2392C66.762 23.2982 68.1647 23.32 69.3556 23.32V21.32C68.0986 21.32 66.8612 21.2938 66.5838 21.2568L66.3195 23.2392ZM69.3556 23.32C69.9982 23.32 70.6587 23.3204 71.3495 23.2693L71.2018 21.2747C70.5965 21.3196 70.009 21.32 69.3556 21.32V23.32ZM71.2756 23.272C71.3924 23.272 72.4414 23.2846 73.2624 22.9233L72.4569 21.0927C72.294 21.1643 72.0515 21.2162 71.7884 21.2449C71.5396 21.272 71.3363 21.272 71.2756 21.272V23.272ZM73.2512 22.9282C74.932 22.2129 75.1465 20.5345 75.1949 20.1722L73.2124 19.9078C73.1647 20.2655 73.0433 20.8431 72.4681 21.0878L73.2512 22.9282ZM75.1936 20.1814C75.3247 19.2634 75.3716 17.975 75.3716 16.008H73.3716C73.3716 17.977 73.3225 19.1366 73.2137 19.8986L75.1936 20.1814ZM75.3716 16.008C75.3716 14.8354 75.3718 13.639 75.3228 12.4392L73.3245 12.5208C73.3715 13.673 73.3716 14.8286 73.3716 16.008H75.3716ZM75.3235 12.4636C75.3118 11.7497 75.287 10.7873 74.9747 9.93424C74.6345 9.00487 73.946 8.18764 72.7035 7.86424L72.1997 9.79976C72.7092 9.93236 72.9448 10.2071 73.0966 10.6218C73.2763 11.1127 73.3115 11.7463 73.3238 12.4964L75.3235 12.4636ZM72.7015 7.86372C71.8004 7.63117 70.3167 7.59287 68.466 7.64033L68.5173 9.63967C70.4106 9.59112 71.6149 9.64883 72.2017 9.80028L72.7015 7.86372ZM81.1274 7.056V6.056H80.1274V7.056H81.1274ZM83.1914 7.056H84.1914V6.056H83.1914V7.056ZM83.1914 18.648H82.1913L82.1915 18.6617L83.1914 18.648ZM84.0074 21.816L83.4036 22.6131L83.4074 22.616L84.0074 21.816ZM86.4074 22.32L86.4509 21.3209L86.4392 21.3204L86.4274 21.3202L86.4074 22.32ZM91.3994 22.056L91.7584 22.9894L91.7708 22.9845L91.3994 22.056ZM92.2634 21.264L91.3841 20.7877L91.3776 20.8L92.2634 21.264ZM92.6474 18.48L93.6473 18.4979L93.6474 18.4889V18.48H92.6474ZM92.6474 7.056V6.056H91.6474V7.056H92.6474ZM94.7354 7.056H95.7354V6.056H94.7354V7.056ZM94.6874 20.112L93.6936 20.0016L93.6916 20.0195L93.6902 20.0376L94.6874 20.112ZM93.6554 22.872L94.3625 23.5791H94.3625L93.6554 22.872ZM92.8874 23.448L92.4402 22.5536L92.4215 22.563L92.4031 22.5731L92.8874 23.448ZM86.3114 24.144L86.2715 25.1432L86.273 25.1433L86.3114 24.144ZM84.5114 23.976L84.3514 24.9631L84.3534 24.9634L84.5114 23.976ZM81.9434 22.656L81.1434 23.256L81.9434 22.656ZM81.1274 18.864H80.1274L80.1275 18.8768L81.1274 18.864ZM81.1274 8.056H83.1914V6.056H81.1274V8.056ZM82.1914 7.056V18.648H84.1914V7.056H82.1914ZM82.1915 18.6617C82.2029 19.4936 82.2061 20.2512 82.3318 20.8647C82.4746 21.5622 82.785 22.1445 83.4036 22.6131L84.6113 21.0189C84.4379 20.8875 84.3522 20.7618 84.2911 20.4633C84.2127 20.0808 84.2039 19.5544 84.1913 18.6343L82.1915 18.6617ZM83.4074 22.616C84.2802 23.2706 85.2385 23.2968 86.3874 23.3198L86.4274 21.3202C85.1764 21.2952 84.8867 21.2254 84.6074 21.016L83.4074 22.616ZM86.364 23.3191C86.9412 23.3442 87.4906 23.344 88.0394 23.344V21.344C87.4843 21.344 86.9777 21.3438 86.4509 21.3209L86.364 23.3191ZM88.0394 23.344C88.8243 23.344 89.5388 23.3321 90.1443 23.2873C90.73 23.2439 91.3026 23.1647 91.7584 22.9893L91.0405 21.1227C90.8723 21.1873 90.5449 21.2521 89.9966 21.2927C89.4681 21.3319 88.8146 21.344 88.0394 21.344V23.344ZM91.7708 22.9845C91.996 22.8944 92.7279 22.5325 93.1493 21.728L91.3776 20.8C91.3303 20.8903 91.2553 20.9711 91.1684 21.0378C91.0786 21.1068 91.0097 21.1348 91.028 21.1275L91.7708 22.9845ZM93.1427 21.7403C93.3856 21.292 93.496 20.7885 93.5565 20.2776C93.6171 19.7656 93.6353 19.167 93.6473 18.4979L91.6476 18.4621C91.6355 19.137 91.6177 19.6424 91.5704 20.0424C91.5229 20.4435 91.4533 20.66 91.3841 20.7877L93.1427 21.7403ZM93.6474 18.48V7.056H91.6474V18.48H93.6474ZM92.6474 8.056H94.7354V6.056H92.6474V8.056ZM93.7354 7.056V18.792H95.7354V7.056H93.7354ZM93.7354 18.792C93.7354 19.2346 93.7344 19.6342 93.6936 20.0016L95.6813 20.2224C95.7365 19.7258 95.7354 19.2134 95.7354 18.792H93.7354ZM93.6902 20.0376C93.6359 20.766 93.515 21.2218 93.3866 21.5226C93.2641 21.8099 93.1187 21.9946 92.9483 22.1649L94.3625 23.5791C94.6722 23.2694 94.9828 22.8781 95.2262 22.3074C95.4639 21.7502 95.619 21.066 95.6847 20.1864L93.6902 20.0376ZM92.9483 22.1649C92.7451 22.3681 92.5665 22.4904 92.4402 22.5536L93.3347 24.3424C93.6883 24.1656 94.0378 23.9039 94.3625 23.5791L92.9483 22.1649ZM92.4031 22.5731C91.897 22.8533 91.2245 23.0187 90.4538 23.1052C89.6899 23.191 88.9105 23.192 88.2074 23.192V25.192C88.8964 25.192 89.785 25.193 90.6771 25.0928C91.5624 24.9933 92.5339 24.7867 93.3718 24.3229L92.4031 22.5731ZM88.2074 23.192C87.6055 23.192 86.976 23.1688 86.3499 23.1447L86.273 25.1433C86.8949 25.1672 87.5614 25.192 88.2074 25.192V23.192ZM86.3514 23.1448C85.7772 23.1218 85.2188 23.0765 84.6694 22.9886L84.3534 24.9634C85.0041 25.0675 85.6457 25.1182 86.2715 25.1432L86.3514 23.1448ZM84.6715 22.9889C83.8188 22.8506 83.2125 22.6814 82.7434 22.056L81.1434 23.256C82.1144 24.5506 83.428 24.8134 84.3514 24.9631L84.6715 22.9889ZM82.7434 22.056C82.3113 21.4798 82.1515 20.7345 82.1274 18.8512L80.1275 18.8768C80.1514 20.7375 80.2796 22.1042 81.1434 23.256L82.7434 22.056ZM82.1274 18.864V7.056H80.1274V18.864H82.1274ZM99.7632 7.056V6.056H98.7632V7.056H99.7632ZM103.027 7.056L103.879 6.53172L103.586 6.056H103.027V7.056ZM110.947 19.92L111.802 19.4017L111.799 19.3957L110.947 19.92ZM112.387 22.272L111.539 22.802L113.421 25.8125L113.387 22.2625L112.387 22.272ZM112.243 7.056V6.056H111.234L111.243 7.06546L112.243 7.056ZM114.355 7.056H115.355V6.056H114.355V7.056ZM114.355 24V25H115.355V24H114.355ZM111.091 24L110.239 24.523L110.532 25H111.091V24ZM103.123 11.016L102.271 11.5386L102.271 11.539L103.123 11.016ZM101.731 8.784L102.572 8.24187L100.699 5.33881L100.731 8.79346L101.731 8.784ZM101.875 24V25H102.885L102.875 23.9905L101.875 24ZM99.7632 24H98.7632V25H99.7632V24ZM99.7632 8.056H103.027V6.056H99.7632V8.056ZM102.176 7.58027L110.096 20.4443L111.799 19.3957L103.879 6.53172L102.176 7.58027ZM110.092 20.4383C110.571 21.2292 111.055 22.0272 111.539 22.802L113.235 21.742C112.76 20.9808 112.283 20.1948 111.802 19.4017L110.092 20.4383ZM113.387 22.2625L113.243 7.04654L111.243 7.06546L111.387 22.2815L113.387 22.2625ZM112.243 8.056H114.355V6.056H112.243V8.056ZM113.355 7.056V24H115.355V7.056H113.355ZM114.355 23H111.091V25H114.355V23ZM111.944 23.477L103.976 10.493L102.271 11.539L110.239 24.523L111.944 23.477ZM103.976 10.4934C103.521 9.75097 103.059 8.99717 102.572 8.24187L100.891 9.32613C101.364 10.0588 101.814 10.793 102.271 11.5386L103.976 10.4934ZM100.731 8.79346L100.875 24.0095L102.875 23.9905L102.731 8.77454L100.731 8.79346ZM101.875 23H99.7632V25H101.875V23ZM100.763 24V7.056H98.7632V24H100.763ZM119.527 7.056V6.056H118.527V7.056H119.527ZM131.503 8.04L132.103 7.24L132.093 7.23254L132.083 7.22533L131.503 8.04ZM132.295 8.784L133.081 8.16616L133.076 8.15931L132.295 8.784ZM132.943 9.888L133.868 9.50725L133.863 9.49717L133.859 9.48718L132.943 9.888ZM133.423 19.128L132.431 18.9971L132.43 19.0061L132.429 19.0151L133.423 19.128ZM131.791 22.872L132.454 23.6202L132.461 23.6141L131.791 22.872ZM119.527 24H118.527V25H119.527V24ZM121.639 8.976V7.976H120.639V8.976H121.639ZM121.639 22.2H120.639V23.2H121.639V22.2ZM127.831 22.176L127.788 21.1769L127.774 21.1775L127.76 21.1785L127.831 22.176ZM130.735 20.904L129.887 20.374L129.886 20.3757L130.735 20.904ZM131.407 16.536L132.407 16.5539L132.407 16.5449V16.536H131.407ZM131.311 12.456L130.314 12.5357L130.314 12.5368L131.311 12.456ZM129.895 9.432L130.377 8.55616L130.366 8.54961L130.354 8.54338L129.895 9.432ZM119.527 8.056H126.655V6.056H119.527V8.056ZM126.655 8.056C128.393 8.056 129.815 8.06621 130.923 8.85466L132.083 7.22533C130.358 5.99779 128.229 6.056 126.655 6.056V8.056ZM130.903 8.84C130.993 8.90757 131.311 9.15543 131.514 9.40869L133.076 8.15931C132.702 7.69256 132.205 7.31643 132.103 7.24L130.903 8.84ZM131.509 9.40182C131.71 9.65812 131.885 9.96536 132.027 10.2888L133.859 9.48718C133.665 9.04264 133.408 8.58188 133.081 8.16618L131.509 9.40182ZM132.018 10.2688C132.437 11.2868 132.567 12.5146 132.567 15.312H134.567C134.567 12.5414 134.456 10.9372 133.868 9.50725L132.018 10.2688ZM132.567 15.312C132.567 16.6144 132.589 17.8064 132.431 18.9971L134.414 19.2589C134.593 17.9056 134.567 16.5536 134.567 15.312H132.567ZM132.429 19.0151C132.213 20.9191 131.66 21.6428 131.121 22.1299L132.461 23.6141C133.41 22.7572 134.153 21.5609 134.416 19.2409L132.429 19.0151ZM131.127 22.1238C130.679 22.5212 130.093 22.7507 129.375 22.8733C128.648 22.9976 127.87 23 127.063 23V25C127.84 25 128.79 25.0024 129.712 24.8447C130.645 24.6853 131.631 24.3508 132.454 23.6202L131.127 22.1238ZM127.063 23H119.527V25H127.063V23ZM120.527 24V7.056H118.527V24H120.527ZM120.639 8.976V22.2H122.639V8.976H120.639ZM121.639 23.2H126.847V21.2H121.639V23.2ZM126.847 23.2C127.178 23.2 127.525 23.2004 127.902 23.1735L127.76 21.1785C127.465 21.1996 127.187 21.2 126.847 21.2V23.2ZM127.873 23.1751C128.998 23.1272 130.615 22.99 131.584 21.4323L129.886 20.3757C129.511 20.978 128.92 21.1288 127.788 21.1769L127.873 23.1751ZM131.583 21.434C132.067 20.6587 132.248 19.715 132.327 18.8877C132.407 18.056 132.396 17.181 132.407 16.5539L130.407 16.5181C130.394 17.235 130.407 17.968 130.336 18.6963C130.266 19.429 130.122 19.9973 129.887 20.374L131.583 21.434ZM132.407 16.536C132.407 16.3106 132.413 16.0831 132.419 15.841C132.425 15.6031 132.431 15.3506 132.431 15.096H130.431C130.431 15.3214 130.425 15.5489 130.419 15.791C130.413 16.0289 130.407 16.2814 130.407 16.536H132.407ZM132.431 15.096C132.431 14.172 132.381 13.2792 132.308 12.3752L130.314 12.5368C130.385 13.4088 130.431 14.244 130.431 15.096H132.431ZM132.308 12.3763C132.216 11.2339 132.076 9.49214 130.377 8.55616L129.412 10.3078C130.066 10.6679 130.213 11.2781 130.314 12.5357L132.308 12.3763ZM130.354 8.54338C129.365 8.03293 128.311 7.976 126.631 7.976V9.976C128.359 9.976 128.937 10.0631 129.436 10.3206L130.354 8.54338ZM126.631 7.976H121.639V9.976H126.631V7.976ZM146.442 7.056V6.056H145.442V7.056H146.442ZM158.418 8.04L159.018 7.24L159.009 7.23254L158.998 7.22533L158.418 8.04ZM159.21 8.784L159.997 8.16616L159.991 8.15931L159.21 8.784ZM159.858 9.888L160.783 9.50725L160.779 9.49717L160.775 9.48718L159.858 9.888ZM160.339 19.128L159.347 18.9971L159.346 19.0061L159.345 19.0151L160.339 19.128ZM158.706 22.872L159.37 23.6202L159.377 23.6141L158.706 22.872ZM146.442 24H145.442V25H146.442V24ZM148.554 8.976V7.976H147.554V8.976H148.554ZM148.554 22.2H147.554V23.2H148.554V22.2ZM154.746 22.176L154.704 21.1769L154.69 21.1775L154.675 21.1785L154.746 22.176ZM157.65 20.904L156.802 20.374L156.801 20.3757L157.65 20.904ZM158.322 16.536L159.322 16.5539L159.322 16.5449V16.536H158.322ZM158.227 12.456L157.23 12.5357L157.23 12.5368L158.227 12.456ZM156.811 9.432L157.293 8.55616L157.281 8.54961L157.269 8.54338L156.811 9.432ZM146.442 8.056H153.57V6.056H146.442V8.056ZM153.57 8.056C155.309 8.056 156.731 8.06621 157.839 8.85466L158.998 7.22533C157.274 5.99779 155.144 6.056 153.57 6.056V8.056ZM157.819 8.84C157.909 8.90757 158.227 9.15543 158.43 9.40869L159.991 8.15931C159.618 7.69256 159.12 7.31643 159.018 7.24L157.819 8.84ZM158.424 9.40182C158.626 9.65812 158.801 9.96536 158.942 10.2888L160.775 9.48718C160.58 9.04264 160.323 8.58188 159.997 8.16618L158.424 9.40182ZM158.934 10.2688C159.353 11.2868 159.482 12.5146 159.482 15.312H161.482C161.482 12.5414 161.372 10.9372 160.783 9.50725L158.934 10.2688ZM159.482 15.312C159.482 16.6144 159.504 17.8064 159.347 18.9971L161.33 19.2589C161.509 17.9056 161.482 16.5536 161.482 15.312H159.482ZM159.345 19.0151C159.129 20.9191 158.575 21.6428 158.036 22.1299L159.377 23.6141C160.326 22.7572 161.068 21.5609 161.332 19.2409L159.345 19.0151ZM158.043 22.1238C157.595 22.5212 157.008 22.7507 156.291 22.8733C155.564 22.9976 154.785 23 153.979 23V25C154.756 25 155.705 25.0024 156.628 24.8447C157.561 24.6853 158.546 24.3508 159.37 23.6202L158.043 22.1238ZM153.979 23H146.442V25H153.979V23ZM147.442 24V7.056H145.442V24H147.442ZM147.554 8.976V22.2H149.554V8.976H147.554ZM148.554 23.2H153.762V21.2H148.554V23.2ZM153.762 23.2C154.094 23.2 154.441 23.2004 154.818 23.1735L154.675 21.1785C154.38 21.1996 154.103 21.2 153.762 21.2V23.2ZM154.789 23.1751C155.914 23.1272 157.53 22.99 158.5 21.4323L156.801 20.3757C156.427 20.978 155.835 21.1288 154.704 21.1769L154.789 23.1751ZM158.498 21.434C158.983 20.6587 159.163 19.715 159.243 18.8877C159.323 18.056 159.311 17.181 159.322 16.5539L157.323 16.5181C157.31 17.235 157.322 17.968 157.252 18.6963C157.182 19.429 157.038 19.9973 156.802 20.374L158.498 21.434ZM159.322 16.536C159.322 16.3106 159.328 16.0831 159.334 15.841C159.34 15.6031 159.346 15.3506 159.346 15.096H157.346C157.346 15.3214 157.341 15.5489 157.335 15.791C157.329 16.0289 157.322 16.2814 157.322 16.536H159.322ZM159.346 15.096C159.346 14.172 159.297 13.2792 159.223 12.3752L157.23 12.5368C157.3 13.4088 157.346 14.244 157.346 15.096H159.346ZM159.223 12.3763C159.132 11.2339 158.992 9.49214 157.293 8.55616L156.328 10.3078C156.981 10.6679 157.129 11.2781 157.23 12.5357L159.223 12.3763ZM157.269 8.54338C156.28 8.03293 155.226 7.976 153.547 7.976V9.976C155.275 9.976 155.853 10.0631 156.352 10.3206L157.269 8.54338ZM153.547 7.976H148.554V9.976H153.547V7.976ZM165.15 7.056V6.056H164.15V7.056H165.15ZM175.926 7.056H176.926V6.056H175.926V7.056ZM175.926 8.832V9.832H176.926V8.832H175.926ZM167.166 8.832V7.832H166.166V8.832H167.166ZM167.166 14.4H166.166V15.4H167.166V14.4ZM175.614 14.4H176.614V13.4H175.614V14.4ZM175.614 16.128V17.128H176.614V16.128H175.614ZM167.166 16.128V15.128H166.166V16.128H167.166ZM167.166 22.176H166.166V23.176H167.166V22.176ZM176.046 22.176H177.046V21.176H176.046V22.176ZM176.046 24V25H177.046V24H176.046ZM165.15 24H164.15V25H165.15V24ZM165.15 8.056H175.926V6.056H165.15V8.056ZM174.926 7.056V8.832H176.926V7.056H174.926ZM175.926 7.832H167.166V9.832H175.926V7.832ZM166.166 8.832V14.4H168.166V8.832H166.166ZM167.166 15.4H175.614V13.4H167.166V15.4ZM174.614 14.4V16.128H176.614V14.4H174.614ZM175.614 15.128H167.166V17.128H175.614V15.128ZM166.166 16.128V22.176H168.166V16.128H166.166ZM167.166 23.176H176.046V21.176H167.166V23.176ZM175.046 22.176V24H177.046V22.176H175.046ZM176.046 23H165.15V25H176.046V23ZM166.15 24V7.056H164.15V24H166.15ZM192.271 11.856L192.259 12.8559L193.271 12.8676V11.856H192.271ZM190.183 11.832L189.183 11.7987L189.149 12.8202L190.171 12.8319L190.183 11.832ZM189.847 9.624L190.707 9.11415L190.7 9.10255L189.847 9.624ZM188.215 8.76L188.09 9.75228L188.093 9.75264L188.215 8.76ZM183.943 8.712V9.712H184.007L184.072 9.7036L183.943 8.712ZM182.887 8.952L183.334 9.84643V9.84643L182.887 8.952ZM181.927 12.552L182.918 12.4211L182.916 12.4043L182.913 12.3876L181.927 12.552ZM184.111 14.328L184.027 15.3246L184.034 15.3251L184.111 14.328ZM188.814 14.64L188.707 15.6343L188.718 15.6353L188.814 14.64ZM191.551 15.648L190.827 16.3385L190.835 16.3469L190.843 16.3551L191.551 15.648ZM191.646 22.872L192.394 23.5364L192.403 23.5262L191.646 22.872ZM190.279 23.736L190.616 24.6772L190.62 24.6758L190.279 23.736ZM183.174 24.048L183.329 23.0601L183.32 23.0585L183.31 23.0572L183.174 24.048ZM180.463 22.632L181.285 22.0628L181.281 22.0571L180.463 22.632ZM179.719 18.576L179.731 17.5761L178.707 17.5637L178.719 18.5872L179.719 18.576ZM181.711 18.6L182.709 18.5445L182.657 17.6113L181.723 17.6001L181.711 18.6ZM181.758 19.944L180.76 19.9966L180.762 20.0412L180.769 20.0854L181.758 19.944ZM183.271 22.224L183.502 21.2512L183.498 21.2502L183.271 22.224ZM188.335 22.296L188.246 21.2999L188.237 21.3007L188.228 21.3017L188.335 22.296ZM190.111 21.432L189.228 20.9614L189.222 20.973L189.216 20.9848L190.111 21.432ZM190.471 19.272H191.471V19.2629L191.47 19.2538L190.471 19.272ZM189.679 16.872L189.124 17.7041L189.132 17.7096L189.679 16.872ZM186.631 16.416L186.582 17.4148L186.583 17.4149L186.631 16.416ZM183.679 16.2L183.57 17.1941L183.581 17.1953L183.679 16.2ZM180.895 15.168L180.203 15.8903L180.203 15.8906L180.895 15.168ZM181.039 7.8L180.394 7.03569L180.389 7.03963L181.039 7.8ZM190.831 7.656L191.385 6.82395V6.82395L190.831 7.656ZM191.911 9.024L192.841 8.65683L192.837 8.64808L192.834 8.63938L191.911 9.024ZM192.282 10.8561L190.194 10.8321L190.171 12.8319L192.259 12.8559L192.282 10.8561ZM191.182 11.8653C191.204 11.2131 191.266 10.0582 190.707 9.1142L188.986 10.1338C189.195 10.4858 189.209 11.0109 189.183 11.7987L191.182 11.8653ZM190.7 9.10255C190.503 8.78118 190.232 8.46055 189.804 8.21122C189.396 7.97273 188.909 7.83723 188.336 7.76735L188.093 9.75264C188.504 9.80277 188.701 9.88327 188.797 9.93878C188.873 9.98345 188.926 10.0348 188.993 10.1454L190.7 9.10255ZM188.339 7.76772C187.901 7.71302 186.777 7.64 185.599 7.64V9.64C186.724 9.64 187.76 9.71098 188.09 9.75228L188.339 7.76772ZM185.599 7.64C185.057 7.64 184.44 7.63862 183.813 7.7204L184.072 9.7036C184.549 9.64138 185.036 9.64 185.599 9.64V7.64ZM183.943 7.712C183.828 7.712 183.599 7.73327 183.36 7.77479C183.122 7.81629 182.762 7.89624 182.439 8.05757L183.334 9.84643C183.356 9.83514 183.402 9.81642 183.476 9.79575C183.546 9.77585 183.624 9.75888 183.703 9.74521C183.781 9.73166 183.851 9.72264 183.904 9.71717C183.93 9.71445 183.95 9.71283 183.962 9.71198C183.982 9.7106 183.97 9.712 183.943 9.712V7.712ZM182.439 8.05757C181.876 8.33914 181.443 8.77203 181.178 9.40641C180.934 9.98998 180.855 10.6925 180.855 11.496H182.855C182.855 10.7875 182.931 10.398 183.023 10.1776C183.094 10.008 183.177 9.92486 183.334 9.84643L182.439 8.05757ZM180.855 11.496C180.855 11.6116 180.853 12.1926 180.94 12.7164L182.913 12.3876C182.856 12.0474 182.855 11.6204 182.855 11.496H180.855ZM180.935 12.6829C181.05 13.5498 181.428 14.2361 182.067 14.6939C182.662 15.1205 183.378 15.2704 184.027 15.3245L184.194 13.3315C183.691 13.2896 183.399 13.1875 183.232 13.0681C183.109 12.9799 182.971 12.8262 182.918 12.4211L180.935 12.6829ZM184.034 15.3251C185.7 15.4532 187.144 15.4659 188.707 15.6343L188.922 13.6457C187.365 13.4781 185.641 13.4428 184.187 13.3309L184.034 15.3251ZM188.718 15.6353C190.1 15.769 190.562 16.0606 190.827 16.3385L192.274 14.9575C191.531 14.1794 190.505 13.799 188.911 13.6446L188.718 15.6353ZM190.843 16.3551C191.129 16.6406 191.321 17.0656 191.433 17.6413C191.545 18.2186 191.559 18.8526 191.559 19.488H193.559C193.559 18.8514 193.548 18.0454 193.396 17.2607C193.244 16.4744 192.932 15.6154 192.258 14.9409L190.843 16.3551ZM191.559 19.488C191.559 20.5856 191.396 21.6327 190.89 22.2178L192.403 23.5262C193.433 22.3353 193.559 20.5984 193.559 19.488H191.559ZM190.899 22.2076C190.668 22.4675 190.383 22.6339 189.937 22.7962L190.62 24.6758C191.23 24.4541 191.857 24.1405 192.394 23.5364L190.899 22.2076ZM189.941 22.7948C189.167 23.0726 188.439 23.192 186.487 23.192V25.192C188.518 25.192 189.518 25.0714 190.616 24.6772L189.941 22.7948ZM186.487 23.192C186.284 23.192 184.454 23.2364 183.329 23.0601L183.02 25.0359C183.703 25.1431 184.552 25.1797 185.217 25.1918C185.556 25.198 185.86 25.198 186.087 25.1965C186.201 25.1957 186.296 25.1946 186.367 25.1936C186.394 25.1932 186.438 25.1926 186.453 25.1924C186.464 25.1923 186.472 25.1921 186.479 25.1921C186.486 25.192 186.488 25.192 186.487 25.192V23.192ZM183.31 23.0572C182.615 22.9625 182.178 22.7973 181.891 22.6297C181.613 22.4671 181.433 22.2773 181.285 22.0628L179.64 23.2012C179.924 23.6107 180.308 24.0209 180.882 24.3563C181.447 24.6867 182.15 24.9176 183.039 25.0388L183.31 23.0572ZM181.281 22.0571C180.863 21.4626 180.743 20.7544 180.718 18.5648L178.719 18.5872C178.742 20.6696 178.814 22.0254 179.644 23.2069L181.281 22.0571ZM179.706 19.5759L181.698 19.5999L181.723 17.6001L179.731 17.5761L179.706 19.5759ZM180.712 18.6555C180.723 18.8547 180.729 19.0623 180.735 19.2897C180.741 19.5122 180.747 19.7534 180.76 19.9966L182.757 19.8914C182.746 19.6786 182.74 19.4638 182.734 19.2363C182.728 19.0137 182.722 18.7773 182.709 18.5445L180.712 18.6555ZM180.769 20.0854C180.766 20.0689 180.767 20.0666 180.77 20.1106C180.772 20.1407 180.776 20.1972 180.781 20.2523C180.791 20.3696 180.806 20.5264 180.834 20.703C180.887 21.0425 180.997 21.5179 181.255 21.9599L182.982 20.9521C182.904 20.8181 182.846 20.6215 182.809 20.391C182.792 20.2826 182.782 20.1799 182.774 20.088C182.77 20.0384 182.768 20.0029 182.764 19.9565C182.762 19.9241 182.757 19.8611 182.748 19.8026L180.769 20.0854ZM181.255 21.9599C181.379 22.1728 181.566 22.4398 181.881 22.6801C182.192 22.9172 182.575 23.0885 183.043 23.1978L183.498 21.2502C183.246 21.1915 183.137 21.1228 183.094 21.0899C183.055 21.0602 183.026 21.0272 182.982 20.9521L181.255 21.9599ZM183.039 23.1968C183.397 23.282 183.9 23.3193 184.422 23.3402C184.967 23.362 185.62 23.368 186.319 23.368V21.368C185.625 21.368 185.006 21.362 184.501 21.3418C183.973 21.3207 183.648 21.286 183.502 21.2512L183.039 23.1968ZM186.319 23.368C186.982 23.368 187.707 23.3689 188.441 23.2903L188.228 21.3017C187.618 21.3671 186.999 21.368 186.319 21.368V23.368ZM188.423 23.2921C189.024 23.2386 189.554 23.125 189.996 22.8966C190.473 22.6507 190.795 22.2994 191.005 21.8792L189.216 20.9848C189.186 21.0446 189.16 21.0773 189.079 21.1194C188.963 21.179 188.725 21.2574 188.246 21.2999L188.423 23.2921ZM190.993 21.9026C191.3 21.3266 191.471 20.3381 191.471 19.272H189.471C189.471 19.7226 189.433 20.1133 189.378 20.4189C189.32 20.7422 189.254 20.9138 189.228 20.9614L190.993 21.9026ZM191.47 19.2538C191.447 17.9447 191.253 16.7047 190.225 16.0344L189.132 17.7096C189.175 17.7377 189.249 17.7956 189.321 18.0194C189.402 18.2703 189.459 18.665 189.471 19.2902L191.47 19.2538ZM190.233 16.0399C189.741 15.7118 189.16 15.595 188.619 15.5334C188.074 15.4715 187.401 15.4516 186.678 15.4171L186.583 17.4149C187.372 17.4524 187.935 17.4685 188.392 17.5206C188.853 17.573 189.04 17.6482 189.124 17.7041L190.233 16.0399ZM186.679 15.4172C185.711 15.37 184.744 15.2992 183.776 15.2047L183.581 17.1953C184.581 17.2928 185.582 17.366 186.582 17.4148L186.679 15.4172ZM183.787 15.2059C182.376 15.0516 181.922 14.7669 181.586 14.4454L180.203 15.8906C180.971 16.6251 181.909 17.0124 183.57 17.1941L183.787 15.2059ZM181.586 14.4457C181.224 14.0994 181.025 13.6185 180.924 13.1107C180.824 12.6041 180.839 12.1677 180.839 11.928H178.839C178.839 12.1203 178.817 12.7639 178.963 13.4993C179.108 14.2335 179.437 15.1566 180.203 15.8903L181.586 14.4457ZM180.839 11.928C180.839 11.2419 180.853 10.5512 180.985 9.92681C181.116 9.30778 181.342 8.85601 181.688 8.56037L180.389 7.03963C179.583 7.72799 179.209 8.65622 179.028 9.51319C178.848 10.3648 178.839 11.2461 178.839 11.928H180.839ZM181.683 8.56429C182.163 8.15984 182.997 7.864 185.095 7.864V5.864C182.92 5.864 181.45 6.14416 180.394 7.03571L181.683 8.56429ZM185.095 7.864C186.537 7.864 187.625 7.87117 188.493 7.96608C189.355 8.06028 189.892 8.23186 190.276 8.48805L191.385 6.82395C190.617 6.31214 189.715 6.08772 188.71 5.97792C187.712 5.86882 186.508 5.864 185.095 5.864V7.864ZM190.276 8.48805C190.584 8.69344 190.807 8.97626 190.987 9.40862L192.834 8.63938C192.534 7.91974 192.085 7.29056 191.385 6.82395L190.276 8.48805ZM190.98 9.39117C191.259 10.0983 191.271 10.8186 191.271 11.856H193.271C193.271 10.8774 193.282 9.77374 192.841 8.65683L190.98 9.39117ZM197.082 7.056V6.056H196.082V7.056H197.082ZM199.17 7.056H200.17V6.056H199.17V7.056ZM199.17 24V25H200.17V24H199.17ZM197.082 24H196.082V25H197.082V24ZM197.082 8.056H199.17V6.056H197.082V8.056ZM198.17 7.056V24H200.17V7.056H198.17ZM199.17 23H197.082V25H199.17V23ZM198.082 24V7.056H196.082V24H198.082ZM217.818 12.216V13.216H218.83L218.818 12.204L217.818 12.216ZM215.706 12.216L214.706 12.1985L214.688 13.216H215.706V12.216ZM215.202 9.408L215.909 8.70089L215.901 8.69304L215.893 8.68536L215.202 9.408ZM212.514 8.76L212.569 7.76148L212.559 7.76097L212.55 7.76064L212.514 8.76ZM208.866 8.76L208.898 9.75954L208.91 9.75906L208.866 8.76ZM206.394 9.864L205.53 9.36138L205.524 9.37109L205.519 9.38092L206.394 9.864ZM205.914 12.792L204.915 12.7587L204.915 12.7617L205.914 12.792ZM205.938 18.216L204.938 18.2404L204.939 18.2545L204.94 18.2686L205.938 18.216ZM206.01 19.56L205.015 19.6595L205.016 19.6665L206.01 19.56ZM206.706 21.504L207.424 20.8075L207.419 20.8022L207.413 20.7969L206.706 21.504ZM209.706 22.272L209.752 21.273L209.729 21.272H209.706V22.272ZM212.73 22.272L212.694 21.2726L212.686 21.2729L212.678 21.2734L212.73 22.272ZM215.37 21.432L214.574 20.8269L214.567 20.8357L215.37 21.432ZM215.826 17.376H216.826V16.376H215.826V17.376ZM210.426 17.376H209.426V18.376H210.426V17.376ZM210.426 15.552V14.552H209.426V15.552H210.426ZM217.818 15.552H218.818V14.552H217.818V15.552ZM217.794 19.344L216.795 19.3063L216.794 19.3251V19.344H217.794ZM217.266 22.2L218.134 22.6961L218.146 22.6757L218.157 22.6548L217.266 22.2ZM216.498 23.184L215.898 22.384L215.878 22.3988L215.859 22.4146L216.498 23.184ZM208.818 24.12L208.735 25.1166L208.743 25.1172L208.818 24.12ZM205.866 23.376L206.368 22.511L206.367 22.5106L205.866 23.376ZM204.426 21.672L203.494 22.0344L203.497 22.043L203.501 22.0516L204.426 21.672ZM203.874 11.736L202.88 11.6256L202.877 11.653L202.876 11.6805L203.874 11.736ZM204.906 8.496L205.699 9.10576L205.706 9.096L204.906 8.496ZM207.306 7.128L207.13 6.14349L207.117 6.14599L207.306 7.128ZM212.874 6.936L212.836 7.93526L212.837 7.9353L212.874 6.936ZM216.858 8.112L217.585 7.42538V7.42537L216.858 8.112ZM217.818 11.216H215.706V13.216H217.818V11.216ZM216.706 12.2335C216.717 11.5797 216.733 10.9292 216.662 10.3772C216.587 9.79882 216.401 9.19299 215.909 8.70089L214.495 10.1151C214.555 10.175 214.634 10.2892 214.678 10.6348C214.727 11.0068 214.719 11.4843 214.706 12.1985L216.706 12.2335ZM215.893 8.68536C215.433 8.24523 214.89 8.04127 214.341 7.93216C213.818 7.82837 213.205 7.79621 212.569 7.76148L212.46 9.75851C213.143 9.79579 213.598 9.82362 213.951 9.89384C214.278 9.95873 214.419 10.0428 214.511 10.1306L215.893 8.68536ZM212.55 7.76064C211.857 7.7359 211.191 7.736 210.522 7.736V9.736C211.197 9.736 211.827 9.7361 212.478 9.75936L212.55 7.76064ZM210.522 7.736C209.974 7.736 209.4 7.73584 208.823 7.76094L208.91 9.75906C209.436 9.73616 209.967 9.736 210.522 9.736V7.736ZM208.834 7.76052C208.162 7.78219 206.44 7.79471 205.53 9.36138L207.259 10.3666C207.548 9.86929 208.082 9.78581 208.898 9.75948L208.834 7.76052ZM205.519 9.38092C204.996 10.3271 204.961 11.3822 204.915 12.7587L206.914 12.8253C206.964 11.3218 207.024 10.7929 207.27 10.3471L205.519 9.38092ZM204.915 12.7617C204.89 13.5714 204.89 14.3785 204.89 15.168H206.89C206.89 14.3735 206.89 13.5966 206.914 12.8223L204.915 12.7617ZM204.89 15.168C204.89 16.1897 204.914 17.257 204.938 18.2404L206.938 18.1916C206.914 17.207 206.89 16.1623 206.89 15.168H204.89ZM204.94 18.2686C204.96 18.6588 204.964 19.152 205.015 19.6595L207.005 19.4605C206.96 19.008 206.964 18.6852 206.937 18.1634L204.94 18.2686ZM205.016 19.6665C205.082 20.2798 205.16 21.3716 205.999 22.2111L207.413 20.7969C207.149 20.5324 207.083 20.1842 207.004 19.4535L205.016 19.6665ZM205.989 22.2005C206.58 22.8102 207.303 23.0676 207.956 23.1796C208.586 23.2875 209.241 23.272 209.706 23.272V21.272C209.164 21.272 208.715 21.2805 208.294 21.2084C207.897 21.1404 207.624 21.0138 207.424 20.8075L205.989 22.2005ZM209.661 23.271C210.215 23.2962 210.79 23.296 211.29 23.296V21.296C210.782 21.296 210.253 21.2958 209.752 21.273L209.661 23.271ZM211.29 23.296C211.837 23.296 212.296 23.2962 212.783 23.2706L212.678 21.2734C212.252 21.2958 211.847 21.296 211.29 21.296V23.296ZM212.766 23.2714C213.055 23.261 213.667 23.2609 214.269 23.1377C214.87 23.0146 215.648 22.7355 216.173 22.0283L214.567 20.8357C214.469 20.9685 214.263 21.0974 213.867 21.1783C213.473 21.2591 213.077 21.259 212.694 21.2726L212.766 23.2714ZM216.166 22.0371C216.552 21.5297 216.696 20.914 216.761 20.4035C216.828 19.8822 216.826 19.3307 216.826 18.888H214.826C214.826 19.3573 214.825 19.7778 214.777 20.1505C214.728 20.534 214.644 20.7343 214.574 20.8269L216.166 22.0371ZM216.826 18.888V17.376H214.826V18.888H216.826ZM215.826 16.376H210.426V18.376H215.826V16.376ZM211.426 17.376V15.552H209.426V17.376H211.426ZM210.426 16.552H217.818V14.552H210.426V16.552ZM216.818 15.552C216.818 16.8491 216.842 18.0594 216.795 19.3063L218.793 19.3817C218.842 18.0846 218.818 16.7989 218.818 15.552H216.818ZM216.794 19.344C216.794 19.6662 216.822 20.8709 216.376 21.7452L218.157 22.6548C218.862 21.2731 218.794 19.5498 218.794 19.344H216.794ZM216.398 21.7039C216.249 21.9648 216.17 22.18 215.898 22.384L217.098 23.984C217.451 23.7197 217.692 23.4235 217.858 23.1747C217.998 22.9648 218.144 22.679 218.134 22.6961L216.398 21.7039ZM215.859 22.4146C215.437 22.7651 214.765 22.9887 213.937 23.1059C213.128 23.2203 212.311 23.216 211.674 23.216V25.216C212.285 25.216 213.245 25.2237 214.217 25.0861C215.171 24.9513 216.287 24.6589 217.137 23.9534L215.859 22.4146ZM211.674 23.216C210.754 23.216 209.821 23.1924 208.893 23.1228L208.743 25.1172C209.736 25.1916 210.722 25.216 211.674 25.216V23.216ZM208.901 23.1235C208.528 23.0924 207.33 23.0689 206.368 22.511L205.364 24.241C206.802 25.0751 208.532 25.0996 208.735 25.1165L208.901 23.1235ZM206.367 22.5106C206.067 22.3365 205.637 21.9889 205.351 21.2924L203.501 22.0516C203.983 23.2271 204.754 23.8875 205.365 24.2414L206.367 22.5106ZM205.358 21.3096C205.079 20.5929 204.937 19.6259 204.872 18.5665C204.809 17.5166 204.826 16.4741 204.826 15.6H202.826C202.826 16.4299 202.808 17.5594 202.876 18.6875C202.944 19.8061 203.101 21.0231 203.494 22.0344L205.358 21.3096ZM204.826 15.6C204.826 14.3029 204.803 13.051 204.873 11.7915L202.876 11.6805C202.802 13.013 202.826 14.3531 202.826 15.6H204.826ZM204.868 11.8464C204.906 11.5059 204.95 10.0793 205.699 9.10571L204.113 7.88629C203.507 8.67535 203.212 9.59304 203.062 10.2925C202.985 10.6495 202.942 10.9673 202.916 11.209C202.903 11.3301 202.895 11.4325 202.889 11.5097C202.886 11.5424 202.883 11.5855 202.882 11.6023C202.88 11.6301 202.879 11.6323 202.88 11.6256L204.868 11.8464ZM205.706 9.096C206.045 8.64448 206.463 8.30842 207.495 8.11001L207.117 6.14599C205.653 6.42758 204.775 7.00352 204.106 7.896L205.706 9.096ZM207.482 8.11243C208.076 8.00641 209.332 7.888 211.026 7.888V5.888C209.264 5.888 207.881 6.00959 207.13 6.14357L207.482 8.11243ZM211.026 7.888C211.604 7.888 212.208 7.91112 212.836 7.93526L212.913 5.93674C212.292 5.91288 211.649 5.888 211.026 5.888V7.888ZM212.837 7.9353C214.772 8.00787 215.623 8.26022 216.131 8.79862L217.585 7.42537C216.462 6.23578 214.816 6.00813 212.912 5.9367L212.837 7.9353ZM216.131 8.79862C216.637 9.33388 216.793 10.1607 216.818 12.228L218.818 12.204C218.795 10.2873 218.712 8.61812 217.585 7.42538L216.131 8.79862ZM222.449 7.056V6.056H221.449V7.056H222.449ZM225.713 7.056L226.565 6.53172L226.272 6.056H225.713V7.056ZM233.633 19.92L234.488 19.4017L234.485 19.3957L233.633 19.92ZM235.073 22.272L234.225 22.802L236.107 25.8125L236.073 22.2625L235.073 22.272ZM234.929 7.056V6.056H233.92L233.929 7.06546L234.929 7.056ZM237.041 7.056H238.041V6.056H237.041V7.056ZM237.041 24V25H238.041V24H237.041ZM233.777 24L232.925 24.523L233.218 25H233.777V24ZM225.809 11.016L224.957 11.5386L224.957 11.539L225.809 11.016ZM224.417 8.784L225.257 8.24187L223.385 5.33881L223.417 8.79346L224.417 8.784ZM224.561 24V25H225.571L225.561 23.9905L224.561 24ZM222.449 24H221.449V25H222.449V24ZM222.449 8.056H225.713V6.056H222.449V8.056ZM224.862 7.58027L232.782 20.4443L234.485 19.3957L226.565 6.53172L224.862 7.58027ZM232.778 20.4383C233.257 21.2292 233.741 22.0272 234.225 22.802L235.921 21.742C235.445 20.9808 234.969 20.1948 234.488 19.4017L232.778 20.4383ZM236.073 22.2625L235.929 7.04654L233.929 7.06546L234.073 22.2815L236.073 22.2625ZM234.929 8.056H237.041V6.056H234.929V8.056ZM236.041 7.056V24H238.041V7.056H236.041ZM237.041 23H233.777V25H237.041V23ZM234.629 23.477L226.661 10.493L224.957 11.539L232.925 24.523L234.629 23.477ZM226.662 10.4934C226.207 9.75097 225.745 8.99717 225.257 8.24187L223.577 9.32613C224.05 10.0588 224.5 10.793 224.957 11.5386L226.662 10.4934ZM223.417 8.79346L223.561 24.0095L225.561 23.9905L225.417 8.77454L223.417 8.79346ZM224.561 23H222.449V25H224.561V23ZM223.449 24V7.056H221.449V24H223.449Z" fill="white" mask="url(#path-3-outside-1_0_1)"/>
<defs>
<clipPath id="clip0_0_1">
<rect width="32" height="32" fill="white"/>
</clipPath>
</defs>
</svg>
