<svg width="37" height="37" viewBox="0 0 37 37" fill="none" xmlns="http://www.w3.org/2000/svg">
    <g clip-path="url(#clip0_171_1959)">
    <path d="M31.1 0.5H5.9C2.91766 0.5 0.5 2.91766 0.5 5.9V31.1C0.5 34.0823 2.91766 36.5 5.9 36.5H31.1C34.0823 36.5 36.5 34.0823 36.5 31.1V5.9C36.5 2.91766 34.0823 0.5 31.1 0.5Z" fill="#00DA5A"/>
    <g clip-path="url(#clip1_171_1959)">
    <rect x="5.5" y="5.5" width="26" height="26" rx="13" fill="#121212"/>
    <path fill-rule="evenodd" clip-rule="evenodd" d="M26.17 17.07C22.01 14.6 15.055 14.34 11.09 15.575C10.44 15.77 9.79 15.38 9.595 14.795C9.4 14.145 9.79 13.495 10.375 13.3C14.99 11.935 22.595 12.195 27.405 15.055C27.99 15.38 28.185 16.16 27.86 16.745C27.535 17.2 26.755 17.395 26.17 17.07ZM26.04 20.71C25.715 21.165 25.13 21.36 24.675 21.035C21.165 18.89 15.835 18.24 11.74 19.54C11.22 19.67 10.635 19.41 10.505 18.89C10.375 18.37 10.635 17.785 11.155 17.655C15.9 16.225 21.75 16.94 25.78 19.41C26.17 19.605 26.365 20.255 26.04 20.71ZM24.48 24.285C24.22 24.675 23.765 24.805 23.375 24.545C20.32 22.66 16.485 22.27 11.935 23.31C11.48 23.44 11.09 23.115 10.96 22.725C10.83 22.27 11.155 21.88 11.545 21.75C16.485 20.645 20.775 21.1 24.155 23.18C24.61 23.375 24.675 23.895 24.48 24.285ZM18.5 5.5C11.35 5.5 5.5 11.35 5.5 18.5C5.5 25.65 11.35 31.5 18.5 31.5C25.65 31.5 31.5 25.65 31.5 18.5C31.5 11.35 25.715 5.5 18.5 5.5Z" fill="#00DA5A"/>
    </g>
    </g>
    <defs>
    <clipPath id="clip0_171_1959">
    <rect x="0.5" y="0.5" width="36" height="36" rx="18" fill="white"/>
    </clipPath>
    <clipPath id="clip1_171_1959">
    <rect x="5.5" y="5.5" width="26" height="26" rx="13" fill="white"/>
    </clipPath>
    </defs>
</svg>