<svg width="37" height="37" viewBox="0 0 37 37" fill="none" xmlns="http://www.w3.org/2000/svg">
    <g clip-path="url(#clip0_171_1968)">
    <path d="M31.1 0.5H5.9C2.91766 0.5 0.5 2.91766 0.5 5.9V31.1C0.5 34.0823 2.91766 36.5 5.9 36.5H31.1C34.0823 36.5 36.5 34.0823 36.5 31.1V5.9C36.5 2.91766 34.0823 0.5 31.1 0.5Z" fill="#CD201F"/>
    <path d="M25.145 17.6268C21.615 15.7403 18.235 14.006 14.78 12.1953V23.0275C18.4158 21.051 22.2479 19.241 25.16 17.6268H25.145Z" fill="white"/>
    <path d="M15.445 31.5058C8.11279 31.3708 5.60851 31.2493 4.06922 30.9322C3.02779 30.7215 2.12278 30.2536 1.45921 29.5751C0.946353 29.0615 0.538495 28.2779 0.222066 27.1908C-0.0493635 26.285 -0.155078 25.5315 -0.305793 23.6908C-0.536508 19.5365 -0.591508 16.14 -0.305793 12.345C-0.070078 10.2493 0.0442077 7.76144 1.60993 6.31C2.34921 5.63072 3.20921 5.19357 4.17493 5.01286C5.68351 4.72643 12.1107 4.5 18.7642 4.5C25.4028 4.5 31.8443 4.72643 33.3543 5.01286C34.5607 5.23929 35.6921 5.91786 36.3564 6.79286C37.785 9.04001 37.81 11.8343 37.955 14.02C38.015 15.0614 38.015 20.975 37.955 22.0165C37.7293 25.4708 37.5479 26.6929 37.035 27.96C36.7179 28.76 36.4471 29.1822 35.9786 29.65C35.2437 30.37 34.3068 30.8489 33.2928 31.0229C26.9478 31.5001 21.56 31.6036 15.445 31.5058ZM25.1614 17.6257C21.6314 15.7393 18.2514 13.99 14.7964 12.1793V23.0122C18.4321 21.0357 22.265 19.225 25.1764 17.6107L25.1614 17.6257Z" fill="#CD201F"/>
    </g>
    <defs>
    <clipPath id="clip0_171_1968">
    <rect x="0.5" y="0.5" width="36" height="36" rx="18" fill="white"/>
    </clipPath>
    </defs>
</svg>